<?xml version="1.0" standalone="no"?>
<!DOCTYPE svg PUBLIC "-//W3C//DTD SVG 1.1//EN" "http://www.w3.org/Graphics/SVG/1.1/DTD/svg11.dtd" >
<svg xmlns="http://www.w3.org/2000/svg">
    <defs>
        <font id="TruenoUltLt">
            <font-face font-family="TruenoUltLt"
                       units-per-em="1000"
                       ascent="968"
                       descent="-251"
                       bbox="-279 -206 1301 964"
                    />
            <missing-glyph horiz-adv-x="0" />
            
            <glyph glyph-name="!" unicode="&#x21;" horiz-adv-x="135" d=" M121,520 L117,197 L85,197 L81,520 L81,684 L121,684 M87,64 Q115,64 125,54 Q135,44 135,29 Q135,13 125,2.5 Q115,-8 101,-8 Q87,-8 77,2.5 Q67,13 67,29 Q67,44 87,64"/> 
            <glyph glyph-name="&quot;" unicode="&#x22;" horiz-adv-x="204" d=" M95,495 L60,495 L60,699 L95,699 M204,495 L169,495 L169,699 L204,699"/> 
            <glyph glyph-name="#" unicode="&#x23;" horiz-adv-x="667" d=" M516,460 L488,236 L634,236 L633,199 L484,199 L459,0 L425,0 L449,199 L223,199 L199,0 L165,0 L189,199 L43,199 L44,236 L194,236 L222,460 L75,460 L76,496 L226,496 L251,699 L285,699 L260,496 L486,496 L511,699 L546,699 L521,496 L667,496 L666,460 M482,460 L256,460 L228,236 L454,236"/> 
            <glyph glyph-name="$" unicode="&#x24;" horiz-adv-x="530" d=" M314,657 L314,378 Q356,365 378.5,357 Q401,349 435,332 Q469,315 486.5,296 Q504,277 517,246.5 Q530,216 530,177 Q530,102 471.5,54 Q413,6 314,0 L314,-125 L279,-125 L279,-1 Q213,0 148,28 Q83,56 38,100 L60,137 Q101,95 160,69.5 Q219,44 279,42 L279,344 Q241,356 218,364 Q195,372 164.5,388.5 Q134,405 117,423 Q100,441 88,470 Q76,499 76,535 Q76,605 131,649.5 Q186,694 279,700 L279,811 L314,811 L314,701 Q424,698 506,644 L487,606 Q414,654 314,657 M121,538 Q121,477 161.5,445.5 Q202,414 279,389 L279,656 Q206,651 163.5,619.5 Q121,588 121,538 M485,176 Q485,204 475.5,227 Q466,250 451.5,265.5 Q437,281 412.5,294.5 Q388,308 367,315.5 Q346,323 314,333 L314,43 Q393,48 439,83.5 Q485,119 485,176"/> 
            <glyph glyph-name="%" unicode="&#x25;" horiz-adv-x="863" d=" M218,700 Q300,700 345.5,646.5 Q391,593 391,495 Q391,397 346,344 Q301,291 218,291 Q137,291 92,344 Q47,397 47,495 Q47,592 92,646 Q137,700 218,700 M159,0 L692,699 L736,699 L204,0 M218,669 Q152,669 116.5,624.5 Q81,580 81,495 Q81,411 116.5,366 Q152,321 218,321 Q285,321 321,366 Q357,411 357,495 Q357,580 321.5,624.5 Q286,669 218,669 M690,408 Q773,408 818,354.5 Q863,301 863,204 Q863,106 818,52.5 Q773,-1 690,-1 Q609,-1 564,52.5 Q519,106 519,204 Q519,301 564,354.5 Q609,408 690,408 M690,378 Q624,378 588.5,333 Q553,288 553,204 Q553,119 588.5,74.5 Q624,30 690,30 Q758,30 793.5,74.5 Q829,119 829,204 Q829,288 793,333 Q757,378 690,378"/> 
            <glyph glyph-name="&amp;" unicode="&#x26;" horiz-adv-x="627" d=" M499,147 L627,20 L604,-5 Q517,82 478,120 Q374,-1 256,-1 Q173,-1 116,52 Q59,105 59,185 Q59,255 103,300 Q147,345 226,387 Q149,487 149,558 Q149,619 193.5,659.5 Q238,700 308,700 Q374,700 415,663.5 Q456,627 456,568 Q456,541 445,516.5 Q434,492 419.5,474.5 Q405,457 378,437.5 Q351,418 331.5,407 Q312,396 278,378 Q334,310 473,173 Q517,234 554,319 L585,296 Q548,211 499,147 M185,558 Q185,495 257,403 Q299,425 319.5,437 Q340,449 368,470.5 Q396,492 408,515.5 Q420,539 420,568 Q420,613 390,640.5 Q360,668 309,668 Q254,668 219.5,636.5 Q185,605 185,558 M257,35 Q360,35 452,146 Q298,300 247,361 Q174,321 135,282.5 Q96,244 96,187 Q96,121 142.5,78 Q189,35 257,35"/> 
            <glyph glyph-name="'" unicode="&#x27;" horiz-adv-x="95" d=" M95,495 L60,495 L60,699 L95,699"/> 
            <glyph glyph-name="(" unicode="&#x28;" horiz-adv-x="251" d=" M212,742 L251,742 Q137,570 137,309 Q137,48 251,-124 L212,-124 Q97,47 97,309 Q97,571 212,742"/> 
            <glyph glyph-name=")" unicode="&#x29;" horiz-adv-x="211" d=" M58,742 L96,742 Q211,571 211,309 Q211,47 96,-124 L58,-124 Q172,48 172,309 Q172,570 58,742"/> 
            <glyph glyph-name="*" unicode="&#x2A;" horiz-adv-x="280" d=" M168,558 L168,445 L141,445 L141,558 L43,501 L29,528 L127,584 L29,640 L43,666 L141,609 L141,722 L168,722 L168,609 L266,666 L280,640 L181,584 L280,528 L266,501"/> 
            <glyph glyph-name="+" unicode="&#x2B;" horiz-adv-x="445" d=" M445,304 L258,304 L258,117 L226,117 L226,304 L39,304 L39,338 L226,338 L226,525 L258,525 L258,338 L445,338"/> 
            <glyph glyph-name="," unicode="&#x2C;" horiz-adv-x="126" d=" M78,64 Q106,64 116,53.5 Q126,43 126,28 Q126,15 114,-4 L77,-61 L49,-61 L77,-4 Q58,5 58,28 Q58,44 78,64"/> 
            <glyph glyph-name="-" unicode="&#x2D;" horiz-adv-x="291" d=" M291,284 L68,284 L68,318 L291,318"/> 
            <glyph glyph-name="." unicode="&#x2E;" horiz-adv-x="125" d=" M76,64 Q104,64 114.5,54 Q125,44 125,29 Q125,13 114.5,2.5 Q104,-8 90,-8 Q76,-8 66,2.5 Q56,13 56,29 Q56,44 76,64"/> 
            <glyph glyph-name="/" unicode="&#x2F;" horiz-adv-x="345" d=" M37,-127 L-2,-127 L307,824 L345,824"/> 
            <glyph glyph-name="0" unicode="&#x30;" horiz-adv-x="620" d=" M338,700 Q474,700 547,609.5 Q620,519 620,350 Q620,181 547,90 Q474,-1 338,-1 Q203,-1 130,90 Q57,181 57,350 Q57,519 130,609.5 Q203,700 338,700 M454,662 Q222,662 161,582.5 Q100,503 100,350 Q100,198 161,117.5 Q222,37 338,37 Q454,37 515.5,117.5 Q577,198 577,350 Q577,503 454,662"/> 
            <glyph glyph-name="1" unicode="&#x31;" horiz-adv-x="209" d=" M209,0 L167,0 L167,658 L20,658 L20,699 L209,699"/> 
            <glyph glyph-name="2" unicode="&#x32;" horiz-adv-x="515" d=" M265,700 Q358,700 412.5,655.5 Q467,611 467,534 Q467,488 435,429 Q403,370 346,310 L100,41 L515,41 L515,0 L50,0 L50,42 L317,337 Q367,388 396,440 Q425,492 425,530 Q425,591 381.5,625.5 Q338,660 261,660 Q211,660 160,637 Q109,614 69,574 L48,607 Q92,651 149.5,675.5 Q207,700 265,700"/> 
            <glyph glyph-name="3" unicode="&#x33;" horiz-adv-x="454" d=" M187,398 L228,397 Q332,395 393,346 Q454,297 454,212 Q454,117 389.5,58 Q325,-1 217,-1 Q101,-1 11,62 L31,98 Q112,38 215,38 Q307,38 360,85.5 Q413,133 412,209 Q412,284 359.5,323.5 Q307,363 213,363 L137,363 L137,393 L367,658 L40,658 L40,699 L421,699 L421,667"/> 
            <glyph glyph-name="4" unicode="&#x34;" horiz-adv-x="520" d=" M77,241 L370,241 L370,449 L410,449 L410,241 L520,241 L520,199 L410,199 L410,0 L370,0 L370,199 L33,199 L33,240 L295,699 L338,699"/> 
            <glyph glyph-name="5" unicode="&#x35;" horiz-adv-x="497" d=" M472,658 L126,658 L126,403 Q199,424 267,424 Q371,424 434,369.5 Q497,315 497,226 Q497,123 433.5,61.5 Q370,0 263,0 Q209,0 149,19.5 Q89,39 41,72 L59,107 Q103,77 157.5,59 Q212,41 260,41 Q349,41 401.5,90.5 Q454,140 454,224 Q454,297 402,340 Q350,383 262,383 Q176,383 87,354 L87,699 L472,699"/> 
            <glyph glyph-name="6" unicode="&#x36;" horiz-adv-x="546" d=" M331,701 Q427,701 519,654 L501,619 Q422,661 335,661 Q211,661 149.5,558 Q88,455 102,276 Q121,354 180,398 Q239,442 328,442 Q429,442 487.5,383.5 Q546,325 546,224 Q546,120 484.5,59.5 Q423,-1 320,-1 Q196,-1 126.5,85.5 Q57,172 57,332 Q57,500 131,600.5 Q205,701 331,701 M323,404 Q231,404 175,349.5 Q119,295 119,219 Q119,153 169.5,96 Q220,39 315,39 Q401,39 453.5,89.5 Q506,140 506,226 Q506,308 456.5,356 Q407,404 323,404"/> 
            <glyph glyph-name="7" unicode="&#x37;" horiz-adv-x="504" d=" M504,658 L201,0 L156,0 L460,658 L80,658 L80,550 L42,658 L42,699 L504,699"/> 
            <glyph glyph-name="8" unicode="&#x38;" horiz-adv-x="550" d=" M204,700 Q404,700 461,655.5 Q518,611 518,531 Q518,415 394,374 Q468,355 509,309 Q550,263 550,195 Q550,103 484.5,51 Q419,-1 304,-1 Q188,-1 122,50.5 Q56,102 56,194 Q56,263 97.5,309 Q139,355 214,374 Q89,416 89,532 Q89,611 204,700 M304,664 Q221,664 174,628 Q127,592 127,528 Q127,463 174.5,426 Q222,389 304,389 Q386,389 433,426 Q480,463 480,528 Q480,592 433,628 Q386,664 304,664 M303,352 Q207,352 152,311 Q97,270 97,199 Q97,123 151.5,80 Q206,37 304,37 Q400,37 455,79.5 Q510,122 510,198 Q510,269 455,310.5 Q400,352 303,352"/> 
            <glyph glyph-name="9" unicode="&#x39;" horiz-adv-x="545" d=" M271,-2 Q175,-2 83,45 L101,80 Q180,38 267,38 Q391,38 452.5,141 Q514,244 500,423 Q481,345 422,301 Q363,257 274,257 Q173,257 114.5,315.5 Q56,374 56,475 Q56,579 117.5,639.5 Q179,700 282,700 Q406,700 475.5,613.5 Q545,527 545,367 Q545,199 471,98.5 Q397,-2 271,-2 M279,295 Q371,295 427,349.5 Q483,404 483,480 Q483,546 432.5,603 Q382,660 287,660 Q201,660 148.5,609.5 Q96,559 96,473 Q96,391 145.5,343 Q195,295 279,295"/> 
            <glyph glyph-name=":" unicode="&#x3A;" horiz-adv-x="125" d=" M76,361 Q104,361 114.5,351 Q125,341 125,326 Q125,310 114.5,299.5 Q104,289 90,289 Q76,289 66,299.5 Q56,310 56,326 Q56,341 76,361 M76,64 Q104,64 114.5,54 Q125,44 125,29 Q125,13 114.5,2.5 Q104,-8 90,-8 Q76,-8 66,2.5 Q56,13 56,29 Q56,44 76,64"/> 
            <glyph glyph-name=";" unicode="&#x3B;" horiz-adv-x="126" d=" M104,289 Q76,289 66,299.5 Q56,310 56,326 Q56,341 66,351 Q76,361 90,361 Q104,361 114.5,351 Q125,341 125,326 Q125,310 104,289 M78,64 Q106,64 116,53.5 Q126,43 126,28 Q126,15 114,-4 L77,-61 L49,-61 L77,-4 Q58,5 58,28 Q58,44 78,64"/> 
            <glyph glyph-name="&lt;" unicode="&#x3C;" horiz-adv-x="445" d=" M445,497 L71,327 L445,158 L445,119 L39,305 L39,350 L445,536"/> 
            <glyph glyph-name="=" unicode="&#x3D;" horiz-adv-x="445" d=" M445,405 L39,405 L39,440 L445,440 M445,202 L39,202 L39,237 L445,237"/> 
            <glyph glyph-name="&gt;" unicode="&#x3E;" horiz-adv-x="445" d=" M39,159 L413,329 L39,498 L39,537 L445,351 L445,306 L39,120"/> 
            <glyph glyph-name="?" unicode="&#x3F;" horiz-adv-x="368" d=" M43,524 L7,526 Q12,601 61,642 Q110,683 189,683 Q269,683 318.5,643.5 Q368,604 368,528 Q368,481 351,446 Q334,411 310,388 Q286,365 262.5,343 Q239,321 222,287.5 Q205,254 205,211 L170,211 Q170,258 186.5,293.5 Q203,329 226,351.5 Q249,374 272,396 Q295,418 311.5,450 Q328,482 328,524 Q328,583 289.5,613.5 Q251,644 186,644 Q122,644 84.5,613.5 Q47,583 43,524 M171,64 Q199,64 209,54 Q219,44 219,29 Q219,13 209,2.5 Q199,-8 185,-8 Q171,-8 161,2.5 Q151,13 151,29 Q151,44 171,64"/> 
            <glyph glyph-name="@" unicode="&#x40;" horiz-adv-x="952" d=" M504,716 Q698,716 825,587.5 Q952,459 952,262 Q952,140 908.5,67 Q865,-6 793,-6 Q752,-6 724,22 Q696,50 694,98 L694,150 Q665,87 607,50 Q549,13 475,13 Q369,13 297.5,85 Q226,157 226,267 Q226,377 295.5,449.5 Q365,522 472,522 Q547,522 605.5,484.5 Q664,447 688,389 L688,518 L728,518 L728,110 Q728,72 747.5,50 Q767,28 797,28 Q851,28 884.5,92 Q918,156 918,262 Q918,443 801.5,561.5 Q685,680 504,680 Q322,680 201.5,561.5 Q81,443 81,263 Q81,91 197.5,-22 Q314,-135 491,-135 Q534,-135 585.5,-121.5 Q637,-108 673,-87 L688,-119 Q649,-142 593,-157 Q537,-172 491,-172 Q299,-172 172.5,-48.5 Q46,75 46,263 Q46,459 176.5,587.5 Q307,716 504,716 M568,481 Q386,481 327,420.5 Q268,360 268,268 Q268,175 327,114.5 Q386,54 477,54 Q569,54 628,114.5 Q687,175 687,268 Q687,360 568,481"/> 
            <glyph glyph-name="A" unicode="&#x41;" horiz-adv-x="690" d=" M553,199 L144,199 L54,0 L8,0 L325,699 L370,699 L690,0 L644,0 M534,241 L347,651 L162,241"/> 
            <glyph glyph-name="B" unicode="&#x42;" horiz-adv-x="659" d=" M120,699 L406,699 Q509,699 566.5,653.5 Q624,608 624,526 Q624,461 588.5,419 Q553,377 489,365 Q569,355 614,308.5 Q659,262 659,188 Q659,99 593,49.5 Q527,0 408,0 L120,0 M162,658 L162,382 L405,382 Q489,382 535.5,418 Q582,454 582,521 Q582,586 535.5,622 Q489,658 405,658 M162,341 L162,41 L405,41 Q506,41 561.5,80.5 Q617,120 617,193 Q617,264 561.5,302.5 Q506,341 405,341"/> 
            <glyph glyph-name="C" unicode="&#x43;" horiz-adv-x="654" d=" M407,700 Q548,700 653,606 L628,574 Q536,660 408,660 Q275,660 181.5,569.5 Q88,479 88,351 Q88,222 181.5,131 Q275,40 408,40 Q533,40 628,125 L654,96 Q549,-1 407,-1 Q258,-1 152,102 Q46,205 46,350 Q46,495 152,597.5 Q258,700 407,700"/> 
            <glyph glyph-name="D" unicode="&#x44;" horiz-adv-x="757" d=" M120,699 L398,699 Q548,699 652.5,597.5 Q757,496 757,349 Q757,204 652,102 Q547,0 397,0 L120,0 M162,658 L162,41 L398,41 Q529,41 621.5,131 Q714,221 714,349 Q714,478 621.5,568 Q529,658 397,658"/> 
            <glyph glyph-name="E" unicode="&#x45;" horiz-adv-x="584" d=" M571,658 L162,658 L162,379 L526,379 L526,337 L162,337 L162,41 L584,41 L584,0 L120,0 L120,699 L571,699"/> 
            <glyph glyph-name="F" unicode="&#x46;" horiz-adv-x="541" d=" M541,658 L162,658 L162,356 L498,356 L498,314 L162,314 L162,0 L120,0 L120,699 L541,699"/> 
            <glyph glyph-name="G" unicode="&#x47;" horiz-adv-x="655" d=" M617,343 L655,343 L655,90 Q549,-1 407,-1 Q258,-1 152,102 Q46,205 46,350 Q46,495 152.5,597.5 Q259,700 409,700 Q550,700 655,608 L630,577 Q537,660 409,660 Q276,660 182,569 Q88,478 88,350 Q88,221 182,130 Q276,39 409,39 Q526,39 617,111"/> 
            <glyph glyph-name="H" unicode="&#x48;" horiz-adv-x="677" d=" M677,0 L635,0 L635,330 L162,330 L162,0 L120,0 L120,699 L162,699 L162,371 L635,371 L635,699 L677,699"/> 
            <glyph glyph-name="I" unicode="&#x49;" horiz-adv-x="162" d=" M162,0 L120,0 L120,699 L162,699"/> 
            <glyph glyph-name="J" unicode="&#x4A;" horiz-adv-x="365" d=" M323,699 L365,699 L365,202 Q365,104 317.5,51.5 Q270,-1 183,-1 Q74,-1 2,97 L25,130 Q90,42 183,42 Q251,42 287,83.5 Q323,125 323,203"/> 
            <glyph glyph-name="K" unicode="&#x4B;" horiz-adv-x="654" d=" M601,0 L316,356 L162,188 L162,0 L120,0 L120,699 L162,699 L162,249 L580,699 L632,699 L347,389 L654,0"/> 
            <glyph glyph-name="L" unicode="&#x4C;" horiz-adv-x="473" d=" M162,41 L473,41 L473,0 L120,0 L120,699 L162,699"/> 
            <glyph glyph-name="M" unicode="&#x4D;" horiz-adv-x="796" d=" M796,0 L756,0 L755,641 L468,76 L449,76 L160,641 L160,0 L120,0 L120,699 L178,699 L459,149 L738,699 L796,699"/> 
            <glyph glyph-name="N" unicode="&#x4E;" horiz-adv-x="677" d=" M677,0 L628,0 L162,635 L162,0 L120,0 L120,699 L169,699 L636,64 L636,699 L677,699"/> 
            <glyph glyph-name="O" unicode="&#x4F;" horiz-adv-x="770" d=" M258,700 Q558,700 664,597.5 Q770,495 770,350 Q770,205 664,102 Q558,-1 408,-1 Q258,-1 152,102 Q46,205 46,350 Q46,495 258,700 M540,659 Q276,659 182.5,568.5 Q89,478 89,350 Q89,222 183,131 Q277,40 408,40 Q539,40 633,131 Q727,222 727,350 Q727,478 540,659"/> 
            <glyph glyph-name="P" unicode="&#x50;" horiz-adv-x="635" d=" M120,699 L366,699 Q495,699 565,639 Q635,579 635,469 Q635,356 565,294.5 Q495,233 366,233 L162,233 L162,0 L120,0 M162,658 L162,274 L365,274 Q475,274 535,324.5 Q595,375 595,468 Q595,560 535,609 Q475,658 365,658"/> 
            <glyph glyph-name="Q" unicode="&#x51;" horiz-adv-x="810" d=" M789,-24 L810,-55 Q730,-131 643,-131 Q535,-131 425,-1 L408,-1 Q258,-1 152,102 Q46,205 46,350 Q46,495 152,597.5 Q258,700 408,700 Q558,700 664,597.5 Q770,495 770,350 Q770,221 685.5,124 Q601,27 473,5 Q568,-92 646,-92 Q713,-92 789,-24 M89,478 Q89,222 183,131 Q277,40 408,40 Q539,40 633,131 Q727,222 727,350 Q727,478 633.5,568.5 Q540,659 408,659 Q276,659 89,478"/> 
            <glyph glyph-name="R" unicode="&#x52;" horiz-adv-x="641" d=" M591,0 L426,237 Q401,233 367,233 L162,233 L162,0 L120,0 L120,699 L367,699 Q497,699 567.5,639 Q638,579 638,469 Q638,380 594,322.5 Q550,265 466,244 L641,0 M162,274 L368,274 Q478,274 537.5,324 Q597,374 597,468 Q597,560 537.5,609 Q478,658 368,658 L162,658"/> 
            <glyph glyph-name="S" unicode="&#x53;" horiz-adv-x="530" d=" M306,701 Q419,701 506,644 L487,606 Q409,657 304,657 Q221,657 171,625 Q121,593 121,538 Q121,495 143.5,465 Q166,435 202.5,418 Q239,401 282.5,388 Q326,375 370,360 Q414,345 450,324.5 Q486,304 508,266.5 Q530,229 530,177 Q530,96 463.5,47.5 Q397,-1 287,-1 Q218,-1 151.5,26.5 Q85,54 38,100 L60,137 Q102,93 164,67.5 Q226,42 288,42 Q378,42 431.5,78.5 Q485,115 485,176 Q486,236 444,272 Q402,308 341.5,325.5 Q281,343 221,362 Q161,381 118.5,423.5 Q76,466 76,535 Q76,610 139,655.5 Q202,701 306,701"/> 
            <glyph glyph-name="T" unicode="&#x54;" horiz-adv-x="526" d=" M526,658 L290,658 L290,0 L248,0 L248,658 L12,658 L12,699 L526,699"/> 
            <glyph glyph-name="U" unicode="&#x55;" horiz-adv-x="669" d=" M669,699 L669,286 Q669,150 594.5,74.5 Q520,-1 386,-1 Q252,-1 177.5,74.5 Q103,150 103,286 L103,699 L145,699 L145,286 Q145,169 208.5,104.5 Q272,40 386,40 Q500,40 563.5,104.5 Q627,169 627,286 L627,699"/> 
            <glyph glyph-name="V" unicode="&#x56;" horiz-adv-x="632" d=" M342,0 L298,0 L8,699 L55,699 L320,50 L586,699 L632,699"/> 
            <glyph glyph-name="W" unicode="&#x57;" horiz-adv-x="992" d=" M756,0 L713,0 L501,640 L288,0 L244,0 L8,699 L55,699 L267,50 L479,699 L523,699 L736,50 L947,699 L992,699"/> 
            <glyph glyph-name="X" unicode="&#x58;" horiz-adv-x="600" d=" M340,363 L600,0 L550,0 L314,326 L78,0 L29,0 L289,361 L48,699 L97,699 L314,398 L532,699 L581,699"/> 
            <glyph glyph-name="Y" unicode="&#x59;" horiz-adv-x="605" d=" M329,256 L329,0 L288,0 L288,254 L8,699 L53,699 L308,306 L560,699 L605,699"/> 
            <glyph glyph-name="Z" unicode="&#x5A;" horiz-adv-x="605" d=" M601,659 L100,41 L605,41 L605,0 L49,0 L49,40 L550,658 L62,658 L63,699 L601,699"/> 
            <glyph glyph-name="[" unicode="&#x5B;" horiz-adv-x="286" d=" M286,704 L158,704 L158,-86 L286,-86 L286,-124 L120,-124 L120,742 L286,742"/> 
            <glyph glyph-name="\" unicode="&#x5C;" horiz-adv-x="347" d=" M38,824 L347,-127 L309,-127 L0,824"/> 
            <glyph glyph-name="]" unicode="&#x5D;" horiz-adv-x="232" d=" M232,742 L232,-124 L65,-124 L65,-86 L193,-86 L193,704 L65,704 L65,742"/> 
            <glyph glyph-name="^" unicode="&#x5E;" horiz-adv-x="454" d=" M415,128 L245,496 L76,128 L37,128 L223,527 L268,527 L454,128"/> 
            <glyph glyph-name="_" unicode="&#x5F;" horiz-adv-x="543" d=" M543,-204 L0,-204 L0,-172 L543,-172"/> 
            <glyph glyph-name="`" unicode="&#x60;" horiz-adv-x="261" d=" M261,620 L214,620 L86,723 L127,743"/> 
            <glyph glyph-name="a" unicode="&#x61;" horiz-adv-x="480" d=" M439,0 L438,103 Q374,-1 230,-1 Q153,-1 105.5,42 Q58,85 58,152 Q58,217 110,254.5 Q162,292 252,292 L437,292 L437,343 Q436,410 397,447 Q358,484 281,484 Q195,484 106,416 L86,448 Q188,522 287,522 Q378,522 427.5,475 Q477,428 478,346 L480,0 M236,37 Q391,37 438,170 L438,255 L256,255 Q98,255 98,153 Q98,101 135.5,69 Q173,37 236,37"/> 
            <glyph glyph-name="b" unicode="&#x62;" horiz-adv-x="623" d=" M372,522 Q482,522 552.5,448.5 Q623,375 623,260 Q623,146 552.5,72.5 Q482,-1 372,-1 Q296,-1 238.5,35.5 Q181,72 151,136 L151,0 L109,0 L109,742 L151,742 L151,384 Q181,449 238.5,485.5 Q296,522 372,522 M272,38 Q460,38 521,100.5 Q582,163 582,260 Q582,357 521,420 Q460,483 366,483 Q272,483 211.5,420 Q151,357 151,260 Q151,163 272,38"/> 
            <glyph glyph-name="c" unicode="&#x63;" horiz-adv-x="499" d=" M303,522 Q416,522 489,449 L465,419 Q397,482 304,482 Q210,482 149.5,420 Q89,358 89,261 Q89,162 149.5,100 Q210,38 304,38 Q412,38 474,111 L499,84 Q427,-1 303,-1 Q192,-1 120,72.5 Q48,146 48,260 Q48,374 120,448 Q192,522 303,522"/> 
            <glyph glyph-name="d" unicode="&#x64;" horiz-adv-x="566" d=" M566,742 L566,0 L524,0 L524,136 Q494,71 436,34 Q378,-3 302,-3 Q191,-3 119.5,71 Q48,145 48,260 Q48,375 119.5,449.5 Q191,524 301,524 Q378,524 436,487 Q494,450 524,385 L524,742 M307,36 Q401,36 462.5,99 Q524,162 524,260 Q524,358 462.5,421 Q401,484 307,484 Q213,484 151.5,420.5 Q90,357 89,260 Q90,162 151,99 Q212,36 307,36"/> 
            <glyph glyph-name="e" unicode="&#x65;" horiz-adv-x="546" d=" M302,522 Q415,522 480.5,446.5 Q546,371 544,249 L89,249 Q93,154 153,95.5 Q213,37 304,37 Q414,37 480,109 L504,82 Q427,-1 302,-1 Q191,-1 119.5,72.5 Q48,146 48,260 Q48,375 120,448.5 Q192,522 302,522 M90,286 L506,286 Q500,376 445,430 Q390,484 302,484 Q214,484 156,429.5 Q98,375 90,286"/> 
            <glyph glyph-name="f" unicode="&#x66;" horiz-adv-x="375" d=" M270,703 Q221,704 188.5,669 Q156,634 156,579 L156,508 L317,508 L317,472 L156,472 L156,0 L115,0 L115,472 L49,472 L49,508 L115,508 L115,576 Q115,650 160,697 Q205,744 269,743 Q328,743 375,706 L356,672 Q315,703 270,703"/> 
            <glyph glyph-name="g" unicode="&#x67;" horiz-adv-x="542" d=" M542,521 L542,57 Q542,-58 473.5,-126.5 Q405,-195 290,-194 Q170,-191 79,-109 L101,-78 Q179,-152 289,-155 Q386,-156 444,-98 Q502,-40 502,57 L502,155 Q475,92 419,56.5 Q363,21 289,21 Q184,21 116,91.5 Q48,162 48,271 Q48,380 116,451 Q184,522 288,522 Q362,522 418,486 Q474,450 502,387 L502,521 M204,57 Q384,57 443,117.5 Q502,178 502,270 Q502,363 443,423.5 Q384,484 294,484 Q204,484 145.5,423.5 Q87,363 87,270 Q87,177 204,57"/> 
            <glyph glyph-name="h" unicode="&#x68;" horiz-adv-x="567" d=" M365,522 Q460,522 513.5,467.5 Q567,413 567,318 L567,0 L525,0 L525,310 Q525,390 480,435 Q435,480 355,480 Q259,478 205,418 Q151,358 151,255 L151,0 L109,0 L109,742 L151,742 L151,385 Q204,519 365,522"/> 
            <glyph glyph-name="i" unicode="&#x69;" horiz-adv-x="160" d=" M111,707 Q139,707 149.5,696.5 Q160,686 160,671 Q160,655 149.5,644.5 Q139,634 125,634 Q111,634 100.5,644.5 Q90,655 90,671 Q90,686 111,707 M145,0 L104,0 L104,521 L145,521"/> 
            <glyph glyph-name="j" unicode="&#x6A;" horiz-adv-x="157" d=" M106,707 Q136,707 146.5,696.5 Q157,686 157,671 Q157,655 146.5,644.5 Q136,634 121,634 Q106,634 95.5,644.5 Q85,655 85,671 Q85,686 106,707 M141,521 L141,-27 Q141,-110 107,-152.5 Q73,-195 13,-195 Q-45,-193 -91,-158 L-73,-123 Q-36,-154 12,-154 Q54,-155 77,-123.5 Q100,-92 100,-30 L100,521"/> 
            <glyph glyph-name="k" unicode="&#x6B;" horiz-adv-x="536" d=" M283,289 L151,153 L151,0 L109,0 L109,742 L151,742 L151,213 L459,521 L510,521 L313,319 L536,0 L488,0"/> 
            <glyph glyph-name="l" unicode="&#x6C;" horiz-adv-x="151" d=" M151,0 L109,0 L109,742 L151,742"/> 
            <glyph glyph-name="m" unicode="&#x6D;" horiz-adv-x="958" d=" M760,522 Q853,522 905.5,468 Q958,414 958,318 L958,0 L917,0 L917,310 Q917,390 873,435 Q829,480 750,480 Q657,478 604.5,418 Q552,358 552,255 L552,0 L511,0 L511,310 Q511,390 466.5,435 Q422,480 344,480 Q251,478 198,417.5 Q145,357 145,255 L145,0 L104,0 L104,521 L145,521 L145,384 Q197,519 355,522 Q433,522 483,482.5 Q533,443 547,371 Q596,519 760,522"/> 
            <glyph glyph-name="n" unicode="&#x6E;" horiz-adv-x="561" d=" M359,522 Q454,522 507.5,467.5 Q561,413 561,318 L561,0 L519,0 L519,310 Q519,390 474,435 Q429,480 349,480 Q260,478 206.5,425.5 Q153,373 146,282 L146,0 L104,0 L104,521 L146,521 L146,388 Q199,519 359,522"/> 
            <glyph glyph-name="o" unicode="&#x6F;" horiz-adv-x="562" d=" M305,522 Q417,522 489.5,448.5 Q562,375 562,261 Q562,146 489.5,72.5 Q417,-1 305,-1 Q193,-1 120.5,72.5 Q48,146 48,261 Q48,375 121,448.5 Q194,522 305,522 M305,482 Q211,482 150,420 Q89,358 89,260 Q89,162 150,100 Q211,38 305,38 Q400,38 460.5,100 Q521,162 521,260 Q521,358 460.5,420 Q400,482 305,482"/> 
            <glyph glyph-name="p" unicode="&#x70;" horiz-adv-x="623" d=" M372,522 Q482,522 552.5,448.5 Q623,375 623,260 Q623,146 552.5,72.5 Q482,-1 372,-1 Q296,-1 238.5,35.5 Q181,72 151,136 L151,-194 L109,-194 L109,521 L151,521 L151,384 Q181,449 238.5,485.5 Q296,522 372,522 M272,38 Q460,38 521,100.5 Q582,163 582,260 Q582,357 521,420 Q460,483 366,483 Q272,483 211.5,420 Q151,357 151,260 Q151,163 272,38"/> 
            <glyph glyph-name="q" unicode="&#x71;" horiz-adv-x="566" d=" M566,521 L566,-194 L524,-194 L524,136 Q494,71 436,34 Q378,-3 302,-3 Q191,-3 119.5,71 Q48,145 48,260 Q48,375 119.5,449.5 Q191,524 301,524 Q378,524 436,487 Q494,450 524,385 L524,521 M307,36 Q401,36 462.5,99 Q524,162 524,260 Q524,358 462.5,421 Q401,484 307,484 Q213,484 151.5,420.5 Q90,357 89,260 Q90,162 151,99 Q212,36 307,36"/> 
            <glyph glyph-name="r" unicode="&#x72;" horiz-adv-x="340" d=" M146,521 L146,390 Q197,519 340,522 L340,479 Q255,479 204,426.5 Q153,374 146,282 L146,0 L104,0 L104,521"/> 
            <glyph glyph-name="s" unicode="&#x73;" horiz-adv-x="400" d=" M227,522 Q309,522 376,481 L358,447 Q300,484 226,484 Q168,484 132,461.5 Q96,439 96,394 Q96,356 127.5,332.5 Q159,309 203.5,296 Q248,283 292.5,268.5 Q337,254 368.5,222 Q400,190 400,139 Q400,70 348,34.5 Q296,-1 219,-1 Q103,-1 28,71 L47,103 Q118,37 221,37 Q280,37 319,61 Q358,85 360,132 Q361,172 330,197.5 Q299,223 254.5,236 Q210,249 164.5,264 Q119,279 87.5,310.5 Q56,342 56,391 Q56,456 104.5,489 Q153,522 227,522"/> 
            <glyph glyph-name="t" unicode="&#x74;" horiz-adv-x="349" d=" M333,70 L349,36 Q296,-1 240,-1 Q184,-2 153,35 Q122,72 122,144 L122,472 L46,472 L46,508 L122,508 L122,637 L162,637 L162,508 L339,508 L339,472 L162,472 L162,149 Q162,94 183,66.5 Q204,39 245,40 Q290,40 333,70"/> 
            <glyph glyph-name="u" unicode="&#x75;" horiz-adv-x="536" d=" M536,521 L536,0 L495,0 L495,139 Q444,1 286,-1 Q192,-1 139.5,53 Q87,107 87,203 L87,521 L128,521 L128,211 Q128,131 172,86 Q216,41 295,41 Q389,43 442,103 Q495,163 495,266 L495,521"/> 
            <glyph glyph-name="v" unicode="&#x76;" horiz-adv-x="472" d=" M262,0 L219,0 L8,521 L53,521 L241,45 L428,521 L472,521"/> 
            <glyph glyph-name="w" unicode="&#x77;" horiz-adv-x="836" d=" M639,0 L596,0 L423,466 L248,0 L205,0 L8,521 L53,521 L227,45 L400,521 L445,521 L619,45 L792,521 L836,521"/> 
            <glyph glyph-name="x" unicode="&#x78;" horiz-adv-x="472" d=" M251,300 L412,521 L459,521 L277,269 L472,0 L424,0 L250,237 L75,0 L27,0 L224,269 L42,521 L90,521"/> 
            <glyph glyph-name="y" unicode="&#x79;" horiz-adv-x="474" d=" M474,521 L232,-75 Q183,-195 88,-195 Q30,-195 -11,-165 L7,-129 Q42,-153 86,-153 Q159,-153 198,-59 L222,0 L7,521 L51,521 L243,49 L430,521"/> 
            <glyph glyph-name="z" unicode="&#x7A;" horiz-adv-x="468" d=" M461,482 L105,38 L468,37 L468,-1 L58,0 L58,38 L414,482 L67,482 L67,521 L461,520"/> 
            <glyph glyph-name="{" unicode="&#x7B;" horiz-adv-x="268" d=" M163,625 L163,397 Q163,325 117,308 Q163,293 163,220 L163,-9 Q163,-50 188,-69 Q213,-88 268,-88 L268,-126 L254,-126 Q186,-126 155,-100 Q124,-74 124,-18 L124,222 Q124,289 72,289 L50,289 L50,327 L72,327 Q124,327 124,395 L124,634 Q124,691 155,716.5 Q186,742 254,742 L268,742 L268,704 Q213,704 188,685 Q163,666 163,625"/> 
            <glyph glyph-name="|" unicode="&#x7C;" horiz-adv-x="133" d=" M133,-126 L98,-126 L98,821 L133,821"/> 
            <glyph glyph-name="}" unicode="&#x7D;" horiz-adv-x="268" d=" M268,327 L268,289 L247,289 Q194,289 194,222 L194,-18 Q194,-74 163,-100 Q132,-126 64,-126 L50,-126 L50,-88 Q105,-88 130.5,-69 Q156,-50 156,-9 L156,220 Q156,293 201,308 Q156,324 156,397 L156,625 Q156,666 130.5,685 Q105,704 50,704 L50,742 L64,742 Q132,742 163,716.5 Q194,691 194,634 L194,395 Q194,327 247,327"/> 
            <glyph glyph-name="~" unicode="&#x7E;" horiz-adv-x="406" d=" M155,369 Q186,369 243.5,335.5 Q301,302 325,302 Q373,302 373,359 L406,359 Q406,314 386,289.5 Q366,265 330,265 Q294,265 239,298 Q184,331 160,331 Q113,331 113,274 L79,274 Q79,319 99,344 Q119,369 155,369"/> 
            <glyph glyph-name="¡" unicode="&#xA1;" horiz-adv-x="135" d=" M115,455 Q87,455 77,465.5 Q67,476 67,491 Q67,506 77,516.5 Q87,527 101,527 Q115,527 125,516.5 Q135,506 135,491 Q135,476 115,455 M81,0 L85,323 L117,323 L121,0 L121,-165 L81,-165"/> 
            <glyph glyph-name="¢" unicode="&#xA2;" horiz-adv-x="499" d=" M474,111 L499,84 Q431,4 313,-1 L313,-125 L278,-125 L278,0 Q177,9 112.5,81 Q48,153 48,260 Q48,367 112.5,439.5 Q177,512 278,521 L278,661 L313,661 L313,522 Q419,519 489,449 L465,419 Q400,479 313,482 L313,38 Q415,41 474,111 M89,261 Q89,170 141.5,109 Q194,48 278,39 L278,481 Q194,472 141.5,411.5 Q89,351 89,261"/> 
            <glyph glyph-name="£" unicode="&#xA3;" horiz-adv-x="501" d=" M490,39 L490,0 L49,0 L49,39 L140,39 L140,322 L49,322 L49,358 L140,358 L140,497 Q140,595 187,648 Q234,701 321,701 Q429,701 501,604 L479,571 Q417,659 324,659 Q255,659 218.5,617.5 Q182,576 182,497 L182,358 L370,358 L370,322 L182,322 L182,39"/> 
            <glyph glyph-name="¤" unicode="&#xA4;" horiz-adv-x="674" d=" M641,317 Q641,214 569,137 L674,31 L649,4 L541,112 Q462,49 361,49 Q260,49 183,113 L74,4 L48,31 L155,138 Q84,215 84,317 Q84,420 155,497 L48,604 L74,631 L182,523 Q258,588 361,588 Q464,588 541,524 L649,631 L674,604 L569,498 Q641,421 641,317 M120,412 Q120,222 190.5,155 Q261,88 361,88 Q462,88 533.5,155 Q605,222 605,317 Q605,412 533.5,480.5 Q462,549 361,549 Q261,549 120,412"/> 
            <glyph glyph-name="¥" unicode="&#xA5;" horiz-adv-x="605" d=" M354,297 L535,297 L535,270 L338,270 L329,256 L329,159 L535,159 L535,131 L329,131 L329,0 L288,0 L288,131 L81,131 L81,159 L288,159 L288,254 L278,270 L81,270 L81,297 L261,297 L8,699 L53,699 L308,306 L560,699 L605,699"/> 
            <glyph glyph-name="¦" unicode="&#xA6;" horiz-adv-x="133" d=" M133,469 L98,469 L98,821 L133,821 M133,-126 L98,-126 L98,225 L133,225"/> 
            <glyph glyph-name="§" unicode="&#xA7;" horiz-adv-x="409" d=" M233,694 Q316,694 383,652 L365,622 Q308,659 233,659 Q171,659 134.5,635 Q98,611 98,568 Q98,529 130,504 Q162,479 207.5,465.5 Q253,452 299,437.5 Q345,423 377,392 Q409,361 409,312 Q409,260 372.5,224 Q336,188 290,181 Q403,142 403,55 Q403,-6 352,-43.5 Q301,-81 221,-81 Q103,-81 27,-8 L46,21 Q119,-46 219,-46 Q281,-46 323,-19 Q365,8 365,55 Q365,94 333,119 Q301,144 255.5,157.5 Q210,171 164,186 Q118,201 86,232 Q54,263 54,312 Q54,365 91.5,396.5 Q129,428 196,435 Q124,459 92.5,490.5 Q61,522 61,566 Q61,625 108.5,659.5 Q156,694 233,694 M228,407 Q166,407 128.5,383 Q91,359 91,319 Q91,274 138,240 Q185,206 246,206 Q300,206 335.5,234.5 Q371,263 371,307 Q371,352 332.5,379.5 Q294,407 228,407"/> 
            <glyph glyph-name="¨" unicode="&#xA8;" horiz-adv-x="287" d=" M83,710 Q111,710 121,699.5 Q131,689 131,674 Q131,659 121,648.5 Q111,638 97,638 Q83,638 73,648.5 Q63,659 63,674 Q63,689 83,710 M239,710 Q267,710 277,699.5 Q287,689 287,674 Q287,659 277,648.5 Q267,638 253,638 Q239,638 229,648.5 Q219,659 219,674 Q219,689 239,710"/> 
            <glyph glyph-name="©" unicode="&#xA9;" horiz-adv-x="723" d=" M243,689 Q527,689 625,589.5 Q723,490 723,350 Q723,210 624,109.5 Q525,9 383,9 Q242,9 144,108.5 Q46,208 46,348 Q46,488 243,689 M516,659 Q254,659 164.5,568 Q75,477 75,348 Q75,220 164,129.5 Q253,39 383,39 Q515,39 605,130 Q695,221 695,350 Q695,478 516,659 M390,528 Q463,528 518,478 L500,457 Q454,500 390,500 Q324,500 278,455.5 Q232,411 232,349 Q232,286 278,241.5 Q324,197 390,197 Q453,197 500,239 L518,220 Q463,168 388,168 Q311,168 257,221 Q203,274 203,349 Q203,423 257.5,475.5 Q312,528 390,528"/> 
            <glyph glyph-name="ª" unicode="&#xAA;" horiz-adv-x="310" d=" M277,458 L277,519 Q237,457 150,457 Q104,457 75.5,482 Q47,507 47,546 Q47,585 78.5,606.5 Q110,628 166,628 L276,628 L276,657 Q274,734 184,734 Q133,734 75,697 L64,723 Q128,764 190,764 Q246,764 277.5,736 Q309,708 309,660 L310,458 M159,483 Q243,483 277,554 L276,606 L171,606 Q80,606 80,549 Q80,520 101.5,501.5 Q123,483 159,483"/> 
            <glyph glyph-name="«" unicode="&#xAB;" horiz-adv-x="329" d=" M93,250 L201,92 L161,92 L50,250 L161,411 L201,411 M221,250 L329,92 L289,92 L178,250 L289,411 L329,411"/> 
            <glyph glyph-name="¬" unicode="&#xAC;" horiz-adv-x="450" d=" M450,371 L450,156 L416,156 L416,336 L39,336 L39,371"/> 
            <glyph glyph-name="­" unicode="&#xAD;" horiz-adv-x="291" d=" M291,284 L68,284 L68,318 L291,318"/> 
            <glyph glyph-name="®" unicode="&#xAE;" horiz-adv-x="723" d=" M243,689 Q527,689 625,589.5 Q723,490 723,350 Q723,210 624,109.5 Q525,9 383,9 Q242,9 144,108.5 Q46,208 46,348 Q46,488 243,689 M383,39 Q515,39 605,130 Q695,221 695,350 Q695,478 605.5,568.5 Q516,659 385,659 Q254,659 164.5,568 Q75,477 75,348 Q75,220 164,129.5 Q253,39 383,39 M533,419 Q533,325 445,300 L536,173 L502,173 L417,295 Q399,293 389,293 L285,293 L285,173 L257,173 L257,539 L389,539 Q458,539 495.5,508 Q533,477 533,419 M285,320 L389,320 Q444,320 474.5,346 Q505,372 505,419 Q505,464 474.5,488 Q444,512 389,512 L285,512"/> 
            <glyph glyph-name="¯" unicode="&#xAF;" horiz-adv-x="288" d=" M288,653 L63,653 L63,689 L288,689"/> 
            <glyph glyph-name="°" unicode="&#xB0;" horiz-adv-x="304" d=" M144,799 Q236,799 270,766 Q304,733 304,689 Q304,645 270,612 Q236,579 190,579 Q144,579 110.5,612 Q77,645 77,689 Q77,733 144,799 M190,772 Q155,772 129,747 Q103,722 103,689 Q103,656 129,631.5 Q155,607 190,607 Q226,607 251.5,631.5 Q277,656 277,689 Q277,722 251.5,747 Q226,772 190,772"/> 
            <glyph glyph-name="±" unicode="&#xB1;" horiz-adv-x="445" d=" M445,392 L445,357 L258,357 L258,172 L226,172 L226,357 L39,357 L39,392 L226,392 L226,577 L258,577 L258,392 M39,81 L445,81 L445,46 L39,46"/> 
            <glyph glyph-name="²" unicode="&#xB2;" horiz-adv-x="329" d=" M177,700 Q234,700 267.5,673.5 Q301,647 301,602 Q301,543 227,471 L85,322 L329,322 L329,291 L43,291 L43,321 L203,490 Q266,551 266,598 Q266,631 241.5,649.5 Q217,668 173,668 Q109,668 57,618 L40,644 Q101,700 177,700"/> 
            <glyph glyph-name="³" unicode="&#xB3;" horiz-adv-x="293" d=" M136,525 L160,524 Q220,522 256.5,493.5 Q293,465 293,416 Q293,360 253.5,325.5 Q214,291 148,291 Q76,291 20,328 L36,357 Q83,320 146,320 Q198,320 228,346 Q258,372 258,414 Q258,455 228.5,476.5 Q199,498 145,498 L96,498 L96,521 L231,669 L37,669 L37,698 L273,698 L273,675"/> 
            <glyph glyph-name="´" unicode="&#xB4;" horiz-adv-x="263" d=" M263,723 L135,620 L88,620 L222,743"/> 
            <glyph glyph-name="µ" unicode="&#xB5;" horiz-adv-x="558" d=" M558,521 L558,0 L517,0 L517,139 Q466,1 308,-1 Q203,-1 151,65 L151,-194 L109,-194 L109,521 L151,521 L151,188 Q157,118 200.5,79.5 Q244,41 317,41 Q411,43 464,103 Q517,163 517,266 L517,521"/> 
            <glyph glyph-name="¶" unicode="&#xB6;" horiz-adv-x="450" d=" M450,-111 L415,-111 L415,709 L244,709 L244,-111 L209,-111 L209,404 Q183,402 173,402 Q126,402 91,418.5 Q56,435 38.5,461.5 Q21,488 13,514.5 Q5,541 5,568 Q5,641 55.5,691.5 Q106,742 208,742 L450,742"/> 
            <glyph glyph-name="·" unicode="&#xB7;" horiz-adv-x="124" d=" M76,308 Q104,308 114,297.5 Q124,287 124,272 Q124,257 114,246.5 Q104,236 90,236 Q76,236 66,246.5 Q56,257 56,272 Q56,287 76,308"/> 
            <glyph glyph-name="¸" unicode="&#xB8;" horiz-adv-x="257" d=" M207,6 L183,-49 Q215,-51 235.5,-71 Q256,-91 256,-121 Q257,-158 232,-182 Q207,-206 168,-206 Q123,-206 93,-184 L105,-156 Q129,-175 166,-175 Q193,-175 210,-159 Q227,-143 226,-119 Q225,-99 211,-85.5 Q197,-72 174,-72 Q150,-72 144,-73 L176,6"/> 
            <glyph glyph-name="¹" unicode="&#xB9;" horiz-adv-x="147" d=" M112,291 L112,668 L25,668 L25,699 L147,699 L147,291"/> 
            <glyph glyph-name="º" unicode="&#xBA;" horiz-adv-x="357" d=" M130,764 Q268,764 312.5,721 Q357,678 357,611 Q357,543 312.5,500 Q268,457 199,457 Q130,457 86,500 Q42,543 42,611 Q42,678 130,764 M253,733 Q145,733 110,698.5 Q75,664 75,610 Q75,556 110,521.5 Q145,487 199,487 Q253,487 287.5,521 Q322,555 322,610 Q322,665 253,733"/> 
            <glyph glyph-name="»" unicode="&#xBB;" horiz-adv-x="355" d=" M185,253 L77,411 L117,411 L228,253 L117,92 L77,92 M312,253 L204,411 L244,411 L355,253 L244,92 L204,92"/> 
            <glyph glyph-name="¼" unicode="&#xBC;" horiz-adv-x="702" d=" M112,291 L112,668 L25,668 L25,699 L147,699 L147,291 M28,0 L561,699 L605,699 L73,0 M603,141 L603,261 L637,261 L637,141 L702,141 L702,112 L637,112 L637,0 L603,0 L603,112 L400,112 L400,143 L555,408 L590,408 L436,141"/> 
            <glyph glyph-name="½" unicode="&#xBD;" horiz-adv-x="711" d=" M112,291 L112,668 L25,668 L25,699 L147,699 L147,291 M28,0 L561,699 L605,699 L73,0 M559,409 Q616,409 649.5,382 Q683,355 683,310 Q683,252 609,180 L467,31 L711,31 L711,0 L425,0 L425,30 L585,199 Q648,260 648,307 Q648,339 623,358 Q598,377 555,377 Q491,377 439,327 L422,353 Q483,409 559,409"/> 
            <glyph glyph-name="¾" unicode="&#xBE;" horiz-adv-x="768" d=" M94,0 L627,699 L671,699 L139,0 M136,525 L160,524 Q220,522 256.5,493.5 Q293,465 293,416 Q293,360 253.5,325.5 Q214,291 148,291 Q76,291 20,328 L36,357 Q83,320 146,320 Q198,320 228,346 Q258,372 258,414 Q258,455 228.5,476.5 Q199,498 145,498 L96,498 L96,521 L231,669 L37,669 L37,698 L273,698 L273,675 M669,141 L669,261 L703,261 L703,141 L768,141 L768,112 L703,112 L703,0 L669,0 L669,112 L466,112 L466,143 L621,408 L656,408 L502,141"/> 
            <glyph glyph-name="¿" unicode="&#xBF;" horiz-adv-x="398" d=" M235,455 Q207,455 196.5,465.5 Q186,476 186,491 Q186,506 196.5,516.5 Q207,527 221,527 Q235,527 245,516.5 Q255,506 255,491 Q255,476 235,455 M363,-5 L398,-6 Q394,-81 345,-122 Q296,-163 217,-163 Q137,-163 87.5,-123.5 Q38,-84 38,-8 Q38,38 55,73.5 Q72,109 96,131.5 Q120,154 143.5,176.5 Q167,199 184,232 Q201,265 201,308 L236,308 Q236,261 219.5,225.5 Q203,190 179.5,167.5 Q156,145 133,123.5 Q110,102 93.5,69.5 Q77,37 77,-5 Q77,-63 116,-93.5 Q155,-124 220,-124 Q284,-124 321.5,-93.5 Q359,-63 363,-5"/> 
            <glyph glyph-name="À" unicode="&#xC0;" horiz-adv-x="690" d=" M340,799 L212,902 L253,922 L387,799 M553,199 L144,199 L54,0 L8,0 L325,699 L370,699 L690,0 L644,0 M534,241 L347,651 L162,241"/> 
            <glyph glyph-name="Á" unicode="&#xC1;" horiz-adv-x="690" d=" M356,799 L309,799 L443,922 L484,902 M553,199 L144,199 L54,0 L8,0 L325,699 L370,699 L690,0 L644,0 M534,241 L347,651 L162,241"/> 
            <glyph glyph-name="Â" unicode="&#xC2;" horiz-adv-x="690" d=" M268,800 L226,800 L326,917 L372,917 L472,800 L430,800 L349,893 M553,199 L144,199 L54,0 L8,0 L325,699 L370,699 L690,0 L644,0 M534,241 L347,651 L162,241"/> 
            <glyph glyph-name="Ã" unicode="&#xC3;" horiz-adv-x="690" d=" M289,873 Q242,873 242,816 L210,816 Q210,860 229.5,884 Q249,908 284,908 Q311,908 350,875 Q389,842 408,842 Q455,842 455,899 L487,899 Q487,855 467.5,831 Q448,807 413,807 Q382,807 345,840 Q308,873 289,873 M553,199 L144,199 L54,0 L8,0 L325,699 L370,699 L690,0 L644,0 M534,241 L347,651 L162,241"/> 
            <glyph glyph-name="Ä" unicode="&#xC4;" horiz-adv-x="690" d=" M285,817 Q257,817 247,827.5 Q237,838 237,853 Q237,868 247,878.5 Q257,889 271,889 Q285,889 295.5,878.5 Q306,868 306,853 Q306,838 285,817 M441,817 Q413,817 403,827.5 Q393,838 393,853 Q393,868 403,878.5 Q413,889 427,889 Q441,889 451.5,878.5 Q462,868 462,853 Q462,838 441,817 M553,199 L144,199 L54,0 L8,0 L325,699 L370,699 L690,0 L644,0 M534,241 L347,651 L162,241"/> 
            <glyph glyph-name="Å" unicode="&#xC5;" horiz-adv-x="690" d=" M553,199 L144,199 L54,0 L8,0 L316,678 Q280,689 257.5,718.5 Q235,748 235,784 Q235,829 269,862.5 Q303,896 349,896 Q396,896 430,862.5 Q464,829 464,784 Q464,747 440.5,717.5 Q417,688 380,677 L690,0 L644,0 M262,818 Q262,750 288,725.5 Q314,701 349,701 Q385,701 411,725.5 Q437,750 437,784 Q437,818 411,842.5 Q385,867 349,867 Q314,867 262,818 M534,241 L347,651 L162,241"/> 
            <glyph glyph-name="Æ" unicode="&#xC6;" horiz-adv-x="939" d=" M939,42 L939,0 L475,0 L475,211 L180,211 L54,0 L8,0 L426,699 L926,699 L926,658 L516,658 L516,379 L881,379 L881,337 L516,337 L516,42 M475,249 L475,660 L447,660 L202,249"/> 
            <glyph glyph-name="Ç" unicode="&#xC7;" horiz-adv-x="654" d=" M423,-1 L402,-49 Q434,-51 454.5,-71 Q475,-91 475,-121 Q476,-158 451,-182 Q426,-206 387,-206 Q342,-206 312,-184 L324,-156 Q348,-175 385,-175 Q412,-175 429,-159 Q446,-143 445,-119 Q444,-99 430,-85.5 Q416,-72 393,-72 Q369,-72 363,-73 L392,-1 Q248,5 147,107 Q46,209 46,350 Q46,495 152,597.5 Q258,700 407,700 Q548,700 653,606 L628,574 Q536,660 408,660 Q275,660 181.5,569.5 Q88,479 88,351 Q88,222 181.5,131 Q275,40 408,40 Q533,40 628,125 L654,96 Q557,5 423,-1"/> 
            <glyph glyph-name="È" unicode="&#xC8;" horiz-adv-x="584" d=" M388,799 L341,799 L213,902 L254,922 M571,658 L162,658 L162,379 L526,379 L526,337 L162,337 L162,41 L584,41 L584,0 L120,0 L120,699 L571,699"/> 
            <glyph glyph-name="É" unicode="&#xC9;" horiz-adv-x="584" d=" M485,902 L357,799 L310,799 L444,922 M571,658 L162,658 L162,379 L526,379 L526,337 L162,337 L162,41 L584,41 L584,0 L120,0 L120,699 L571,699"/> 
            <glyph glyph-name="Ê" unicode="&#xCA;" horiz-adv-x="584" d=" M473,800 L431,800 L350,893 L269,800 L227,800 L327,917 L373,917 M571,658 L162,658 L162,379 L526,379 L526,337 L162,337 L162,41 L584,41 L584,0 L120,0 L120,699 L571,699"/> 
            <glyph glyph-name="Ë" unicode="&#xCB;" horiz-adv-x="584" d=" M258,889 Q286,889 296.5,878.5 Q307,868 307,853 Q307,838 296.5,827.5 Q286,817 272,817 Q258,817 248,827.5 Q238,838 238,853 Q238,868 258,889 M414,889 Q442,889 452.5,878.5 Q463,868 463,853 Q463,838 452.5,827.5 Q442,817 428,817 Q414,817 404,827.5 Q394,838 394,853 Q394,868 414,889 M571,658 L162,658 L162,379 L526,379 L526,337 L162,337 L162,41 L584,41 L584,0 L120,0 L120,699 L571,699"/> 
            <glyph glyph-name="Ì" unicode="&#xCC;" horiz-adv-x="179" d=" M179,799 L132,799 L4,902 L45,922 M162,0 L120,0 L120,699 L162,699"/> 
            <glyph glyph-name="Í" unicode="&#xCD;" horiz-adv-x="276" d=" M276,902 L148,799 L101,799 L235,922 M162,0 L120,0 L120,699 L162,699"/> 
            <glyph glyph-name="Î" unicode="&#xCE;" horiz-adv-x="264" d=" M264,800 L222,800 L141,893 L60,800 L18,800 L118,917 L164,917 M162,0 L120,0 L120,699 L162,699"/> 
            <glyph glyph-name="Ï" unicode="&#xCF;" horiz-adv-x="254" d=" M49,889 Q77,889 87.5,878.5 Q98,868 98,853 Q98,838 87.5,827.5 Q77,817 63,817 Q49,817 39,827.5 Q29,838 29,853 Q29,868 49,889 M205,889 Q233,889 243.5,878.5 Q254,868 254,853 Q254,838 243.5,827.5 Q233,817 219,817 Q205,817 195,827.5 Q185,838 185,853 Q185,868 205,889 M162,0 L120,0 L120,699 L162,699"/> 
            <glyph glyph-name="Ð" unicode="&#xD0;" horiz-adv-x="761" d=" M124,699 L402,699 Q552,699 656.5,597.5 Q761,496 761,349 Q761,203 656.5,101.5 Q552,0 401,0 L124,0 L124,336 L0,336 L0,368 L124,368 M166,41 L403,41 Q534,41 626.5,131 Q719,221 719,349 Q719,478 626.5,568 Q534,658 402,658 L166,658 L166,368 L414,368 L414,336 L166,336"/> 
            <glyph glyph-name="Ñ" unicode="&#xD1;" horiz-adv-x="677" d=" M335,908 Q362,908 401,875 Q440,842 459,842 Q506,842 506,899 L538,899 Q538,855 518.5,831 Q499,807 464,807 Q433,807 396,840 Q359,873 340,873 Q293,873 293,816 L261,816 Q261,860 280.5,884 Q300,908 335,908 M677,0 L628,0 L162,635 L162,0 L120,0 L120,699 L169,699 L636,64 L636,699 L677,699"/> 
            <glyph glyph-name="Ò" unicode="&#xD2;" horiz-adv-x="770" d=" M445,799 L398,799 L270,902 L311,922 M258,700 Q558,700 664,597.5 Q770,495 770,350 Q770,205 664,102 Q558,-1 408,-1 Q258,-1 152,102 Q46,205 46,350 Q46,495 258,700 M540,659 Q276,659 182.5,568.5 Q89,478 89,350 Q89,222 183,131 Q277,40 408,40 Q539,40 633,131 Q727,222 727,350 Q727,478 540,659"/> 
            <glyph glyph-name="Ó" unicode="&#xD3;" horiz-adv-x="770" d=" M542,902 L414,799 L367,799 L501,922 M258,700 Q558,700 664,597.5 Q770,495 770,350 Q770,205 664,102 Q558,-1 408,-1 Q258,-1 152,102 Q46,205 46,350 Q46,495 258,700 M540,659 Q276,659 182.5,568.5 Q89,478 89,350 Q89,222 183,131 Q277,40 408,40 Q539,40 633,131 Q727,222 727,350 Q727,478 540,659"/> 
            <glyph glyph-name="Ô" unicode="&#xD4;" horiz-adv-x="770" d=" M530,800 L488,800 L407,893 L326,800 L284,800 L384,917 L430,917 M258,700 Q558,700 664,597.5 Q770,495 770,350 Q770,205 664,102 Q558,-1 408,-1 Q258,-1 152,102 Q46,205 46,350 Q46,495 258,700 M540,659 Q276,659 182.5,568.5 Q89,478 89,350 Q89,222 183,131 Q277,40 408,40 Q539,40 633,131 Q727,222 727,350 Q727,478 540,659"/> 
            <glyph glyph-name="Õ" unicode="&#xD5;" horiz-adv-x="770" d=" M343,908 Q370,908 409,875 Q448,842 467,842 Q514,842 514,899 L546,899 Q546,855 526.5,831 Q507,807 472,807 Q441,807 404,840 Q367,873 348,873 Q301,873 301,816 L269,816 Q269,860 288.5,884 Q308,908 343,908 M258,700 Q558,700 664,597.5 Q770,495 770,350 Q770,205 664,102 Q558,-1 408,-1 Q258,-1 152,102 Q46,205 46,350 Q46,495 258,700 M540,659 Q276,659 182.5,568.5 Q89,478 89,350 Q89,222 183,131 Q277,40 408,40 Q539,40 633,131 Q727,222 727,350 Q727,478 540,659"/> 
            <glyph glyph-name="Ö" unicode="&#xD6;" horiz-adv-x="770" d=" M315,889 Q343,889 353.5,878.5 Q364,868 364,853 Q364,838 353.5,827.5 Q343,817 329,817 Q315,817 305,827.5 Q295,838 295,853 Q295,868 315,889 M471,889 Q499,889 509.5,878.5 Q520,868 520,853 Q520,838 509.5,827.5 Q499,817 485,817 Q471,817 461,827.5 Q451,838 451,853 Q451,868 471,889 M258,700 Q558,700 664,597.5 Q770,495 770,350 Q770,205 664,102 Q558,-1 408,-1 Q258,-1 152,102 Q46,205 46,350 Q46,495 258,700 M540,659 Q276,659 182.5,568.5 Q89,478 89,350 Q89,222 183,131 Q277,40 408,40 Q539,40 633,131 Q727,222 727,350 Q727,478 540,659"/> 
            <glyph glyph-name="×" unicode="&#xD7;" horiz-adv-x="397" d=" M266,321 L397,190 L374,165 L242,297 L110,165 L87,190 L218,321 L87,453 L110,477 L242,345 L374,477 L397,453"/> 
            <glyph glyph-name="Ø" unicode="&#xD8;" horiz-adv-x="770" d=" M565,815 L522,682 Q631,647 700.5,556 Q770,465 770,350 Q770,205 664,102 Q558,-1 408,-1 Q356,-1 305,13 L257,-135 L225,-135 L276,23 Q173,62 109.5,151 Q46,240 46,350 Q46,495 152,597.5 Q258,700 408,700 Q453,700 493,690 L533,815 M89,350 Q89,254 144.5,175.5 Q200,97 289,62 L480,651 Q443,659 408,659 Q276,659 182.5,568.5 Q89,478 89,350 M408,40 Q539,40 633,131 Q727,222 727,350 Q727,451 666,531.5 Q605,612 509,643 L318,53 Q360,40 408,40"/> 
            <glyph glyph-name="Ù" unicode="&#xD9;" horiz-adv-x="669" d=" M424,799 L377,799 L249,902 L290,922 M669,699 L669,286 Q669,150 594.5,74.5 Q520,-1 386,-1 Q252,-1 177.5,74.5 Q103,150 103,286 L103,699 L145,699 L145,286 Q145,169 208.5,104.5 Q272,40 386,40 Q500,40 563.5,104.5 Q627,169 627,286 L627,699"/> 
            <glyph glyph-name="Ú" unicode="&#xDA;" horiz-adv-x="669" d=" M521,902 L393,799 L346,799 L480,922 M669,699 L669,286 Q669,150 594.5,74.5 Q520,-1 386,-1 Q252,-1 177.5,74.5 Q103,150 103,286 L103,699 L145,699 L145,286 Q145,169 208.5,104.5 Q272,40 386,40 Q500,40 563.5,104.5 Q627,169 627,286 L627,699"/> 
            <glyph glyph-name="Û" unicode="&#xDB;" horiz-adv-x="669" d=" M509,800 L467,800 L386,893 L305,800 L263,800 L363,917 L409,917 M669,699 L669,286 Q669,150 594.5,74.5 Q520,-1 386,-1 Q252,-1 177.5,74.5 Q103,150 103,286 L103,699 L145,699 L145,286 Q145,169 208.5,104.5 Q272,40 386,40 Q500,40 563.5,104.5 Q627,169 627,286 L627,699"/> 
            <glyph glyph-name="Ü" unicode="&#xDC;" horiz-adv-x="669" d=" M294,889 Q322,889 332.5,878.5 Q343,868 343,853 Q343,838 332.5,827.5 Q322,817 308,817 Q294,817 284,827.5 Q274,838 274,853 Q274,868 294,889 M450,889 Q478,889 488.5,878.5 Q499,868 499,853 Q499,838 488.5,827.5 Q478,817 464,817 Q450,817 440,827.5 Q430,838 430,853 Q430,868 450,889 M669,699 L669,286 Q669,150 594.5,74.5 Q520,-1 386,-1 Q252,-1 177.5,74.5 Q103,150 103,286 L103,699 L145,699 L145,286 Q145,169 208.5,104.5 Q272,40 386,40 Q500,40 563.5,104.5 Q627,169 627,286 L627,699"/> 
            <glyph glyph-name="Ý" unicode="&#xDD;" horiz-adv-x="605" d=" M314,799 L267,799 L401,922 L442,902 M329,256 L329,0 L288,0 L288,254 L8,699 L53,699 L308,306 L560,699 L605,699"/> 
            <glyph glyph-name="Þ" unicode="&#xDE;" horiz-adv-x="637" d=" M162,590 L340,590 Q637,590 637,367 Q637,137 340,137 L162,137 L162,0 L120,0 L120,699 L162,699 M162,176 L339,176 Q594,176 594,366 Q594,551 339,551 L162,551"/> 
            <glyph glyph-name="ß" unicode="&#xDF;" horiz-adv-x="576" d=" M331,743 Q426,743 483,692.5 Q540,642 540,558 Q540,490 501,441 Q462,392 398,378 Q479,367 527.5,319.5 Q576,272 576,200 Q576,110 510,55 Q444,0 333,0 L279,0 L279,37 L335,37 Q426,37 481,81.5 Q536,126 536,199 Q536,271 478,313 Q420,355 322,355 L316,355 L316,392 Q399,392 449,436 Q499,480 499,554 Q499,623 453.5,664 Q408,705 331,705 Q246,705 195,648 Q144,591 144,496 L144,0 L103,0 L103,494 Q103,607 165,675 Q227,743 331,743"/> 
            <glyph glyph-name="à" unicode="&#xE0;" horiz-adv-x="480" d=" M270,620 L142,723 L183,743 L317,620 M439,0 L438,103 Q374,-1 230,-1 Q153,-1 105.5,42 Q58,85 58,152 Q58,217 110,254.5 Q162,292 252,292 L437,292 L437,343 Q436,410 397,447 Q358,484 281,484 Q195,484 106,416 L86,448 Q188,522 287,522 Q378,522 427.5,475 Q477,428 478,346 L480,0 M236,37 Q391,37 438,170 L438,255 L256,255 Q98,255 98,153 Q98,101 135.5,69 Q173,37 236,37"/> 
            <glyph glyph-name="á" unicode="&#xE1;" horiz-adv-x="480" d=" M286,620 L239,620 L373,743 L414,723 M439,0 L438,103 Q374,-1 230,-1 Q153,-1 105.5,42 Q58,85 58,152 Q58,217 110,254.5 Q162,292 252,292 L437,292 L437,343 Q436,410 397,447 Q358,484 281,484 Q195,484 106,416 L86,448 Q188,522 287,522 Q378,522 427.5,475 Q477,428 478,346 L480,0 M236,37 Q391,37 438,170 L438,255 L256,255 Q98,255 98,153 Q98,101 135.5,69 Q173,37 236,37"/> 
            <glyph glyph-name="â" unicode="&#xE2;" horiz-adv-x="480" d=" M197,621 L155,621 L255,738 L301,738 L401,621 L359,621 L278,714 M439,0 L438,103 Q374,-1 230,-1 Q153,-1 105.5,42 Q58,85 58,152 Q58,217 110,254.5 Q162,292 252,292 L437,292 L437,343 Q436,410 397,447 Q358,484 281,484 Q195,484 106,416 L86,448 Q188,522 287,522 Q378,522 427.5,475 Q477,428 478,346 L480,0 M236,37 Q391,37 438,170 L438,255 L256,255 Q98,255 98,153 Q98,101 135.5,69 Q173,37 236,37"/> 
            <glyph glyph-name="ã" unicode="&#xE3;" horiz-adv-x="480" d=" M219,694 Q172,694 172,637 L140,637 Q140,681 159.5,705 Q179,729 214,729 Q241,729 280,696 Q319,663 338,663 Q385,663 385,720 L417,720 Q417,676 397.5,652 Q378,628 343,628 Q312,628 275,661 Q238,694 219,694 M439,0 L438,103 Q374,-1 230,-1 Q153,-1 105.5,42 Q58,85 58,152 Q58,217 110,254.5 Q162,292 252,292 L437,292 L437,343 Q436,410 397,447 Q358,484 281,484 Q195,484 106,416 L86,448 Q188,522 287,522 Q378,522 427.5,475 Q477,428 478,346 L480,0 M236,37 Q391,37 438,170 L438,255 L256,255 Q98,255 98,153 Q98,101 135.5,69 Q173,37 236,37"/> 
            <glyph glyph-name="ä" unicode="&#xE4;" horiz-adv-x="480" d=" M214,638 Q186,638 176,648.5 Q166,659 166,674 Q166,689 176,699.5 Q186,710 200,710 Q214,710 224.5,699.5 Q235,689 235,674 Q235,659 214,638 M370,638 Q342,638 332,648.5 Q322,659 322,674 Q322,689 332,699.5 Q342,710 356,710 Q370,710 380.5,699.5 Q391,689 391,674 Q391,659 370,638 M439,0 L438,103 Q374,-1 230,-1 Q153,-1 105.5,42 Q58,85 58,152 Q58,217 110,254.5 Q162,292 252,292 L437,292 L437,343 Q436,410 397,447 Q358,484 281,484 Q195,484 106,416 L86,448 Q188,522 287,522 Q378,522 427.5,475 Q477,428 478,346 L480,0 M236,37 Q391,37 438,170 L438,255 L256,255 Q98,255 98,153 Q98,101 135.5,69 Q173,37 236,37"/> 
            <glyph glyph-name="å" unicode="&#xE5;" horiz-adv-x="480" d=" M324,561 Q232,561 198.5,594 Q165,627 165,671 Q165,716 198.5,749 Q232,782 278,782 Q324,782 358,749 Q392,716 392,671 Q392,627 324,561 M313,754 Q243,754 217,729.5 Q191,705 191,671 Q191,638 217,613.5 Q243,589 278,589 Q313,589 339,613.5 Q365,638 365,671 Q365,705 313,754 M439,0 L438,103 Q374,-1 230,-1 Q153,-1 105.5,42 Q58,85 58,152 Q58,217 110,254.5 Q162,292 252,292 L437,292 L437,343 Q436,410 397,447 Q358,484 281,484 Q195,484 106,416 L86,448 Q188,522 287,522 Q378,522 427.5,475 Q477,428 478,346 L480,0 M236,37 Q391,37 438,170 L438,255 L256,255 Q98,255 98,153 Q98,101 135.5,69 Q173,37 236,37"/> 
            <glyph glyph-name="æ" unicode="&#xE6;" horiz-adv-x="942" d=" M695,522 Q806,522 874,447 Q942,372 940,254 L481,254 Q484,157 544.5,97 Q605,37 698,37 Q806,37 873,109 L898,82 Q820,-1 696,-1 Q616,-1 555,39 Q494,79 465,148 Q402,-1 231,-1 Q154,-1 106,41.5 Q58,84 58,151 Q58,216 110,252 Q162,288 253,288 L439,288 L438,343 Q438,410 398,447 Q358,484 282,484 Q193,484 101,416 L85,449 Q190,522 287,522 Q365,522 413,487.5 Q461,453 474,391 Q506,452 564,487 Q622,522 695,522 M482,285 L899,285 Q893,375 837.5,430.5 Q782,486 695,486 Q607,486 548.5,430 Q490,374 482,285 M237,34 Q394,34 452,190 Q445,218 444,243 L440,244 L440,257 L258,257 Q181,257 139.5,230 Q98,203 98,153 Q98,100 136,67 Q174,34 237,34"/> 
            <glyph glyph-name="ç" unicode="&#xE7;" horiz-adv-x="499" d=" M474,111 L499,84 Q432,5 318,-1 L297,-49 Q329,-51 349.5,-71 Q370,-91 370,-121 Q371,-158 346,-182 Q321,-206 282,-206 Q237,-206 207,-184 L219,-156 Q243,-175 280,-175 Q307,-175 324,-159 Q341,-143 340,-119 Q339,-99 325,-85.5 Q311,-72 288,-72 Q264,-72 258,-73 L287,-1 Q182,5 115,77.5 Q48,150 48,260 Q48,374 120,448 Q192,522 303,522 Q416,522 489,449 L465,419 Q397,482 304,482 Q210,482 149.5,420 Q89,358 89,261 Q89,162 149.5,100 Q210,38 304,38 Q412,38 474,111"/> 
            <glyph glyph-name="è" unicode="&#xE8;" horiz-adv-x="546" d=" M287,620 L159,723 L200,743 L334,620 M302,522 Q415,522 480.5,446.5 Q546,371 544,249 L89,249 Q93,154 153,95.5 Q213,37 304,37 Q414,37 480,109 L504,82 Q427,-1 302,-1 Q191,-1 119.5,72.5 Q48,146 48,260 Q48,375 120,448.5 Q192,522 302,522 M90,286 L506,286 Q500,376 445,430 Q390,484 302,484 Q214,484 156,429.5 Q98,375 90,286"/> 
            <glyph glyph-name="é" unicode="&#xE9;" horiz-adv-x="546" d=" M303,620 L256,620 L390,743 L431,723 M302,522 Q415,522 480.5,446.5 Q546,371 544,249 L89,249 Q93,154 153,95.5 Q213,37 304,37 Q414,37 480,109 L504,82 Q427,-1 302,-1 Q191,-1 119.5,72.5 Q48,146 48,260 Q48,375 120,448.5 Q192,522 302,522 M90,286 L506,286 Q500,376 445,430 Q390,484 302,484 Q214,484 156,429.5 Q98,375 90,286"/> 
            <glyph glyph-name="ê" unicode="&#xEA;" horiz-adv-x="546" d=" M215,621 L173,621 L273,738 L319,738 L419,621 L377,621 L296,714 M302,522 Q415,522 480.5,446.5 Q546,371 544,249 L89,249 Q93,154 153,95.5 Q213,37 304,37 Q414,37 480,109 L504,82 Q427,-1 302,-1 Q191,-1 119.5,72.5 Q48,146 48,260 Q48,375 120,448.5 Q192,522 302,522 M90,286 L506,286 Q500,376 445,430 Q390,484 302,484 Q214,484 156,429.5 Q98,375 90,286"/> 
            <glyph glyph-name="ë" unicode="&#xEB;" horiz-adv-x="546" d=" M232,638 Q204,638 194,648.5 Q184,659 184,674 Q184,689 194,699.5 Q204,710 218,710 Q232,710 242.5,699.5 Q253,689 253,674 Q253,659 232,638 M388,638 Q360,638 350,648.5 Q340,659 340,674 Q340,689 350,699.5 Q360,710 374,710 Q388,710 398.5,699.5 Q409,689 409,674 Q409,659 388,638 M302,522 Q415,522 480.5,446.5 Q546,371 544,249 L89,249 Q93,154 153,95.5 Q213,37 304,37 Q414,37 480,109 L504,82 Q427,-1 302,-1 Q191,-1 119.5,72.5 Q48,146 48,260 Q48,375 120,448.5 Q192,522 302,522 M90,286 L506,286 Q500,376 445,430 Q390,484 302,484 Q214,484 156,429.5 Q98,375 90,286"/> 
            <glyph glyph-name="ì" unicode="&#xEC;" horiz-adv-x="163" d=" M163,620 L116,620 L-12,723 L29,743 M145,0 L104,0 L104,521 L145,521"/> 
            <glyph glyph-name="í" unicode="&#xED;" horiz-adv-x="260" d=" M260,723 L132,620 L85,620 L219,743 M145,0 L104,0 L104,521 L145,521"/> 
            <glyph glyph-name="î" unicode="&#xEE;" horiz-adv-x="248" d=" M248,621 L206,621 L125,714 L44,621 L2,621 L102,738 L148,738 M145,0 L104,0 L104,521 L145,521"/> 
            <glyph glyph-name="ï" unicode="&#xEF;" horiz-adv-x="238" d=" M33,710 Q61,710 71.5,699.5 Q82,689 82,674 Q82,659 71.5,648.5 Q61,638 47,638 Q33,638 23,648.5 Q13,659 13,674 Q13,689 33,710 M189,710 Q217,710 227.5,699.5 Q238,689 238,674 Q238,659 227.5,648.5 Q217,638 203,638 Q189,638 179,648.5 Q169,659 169,674 Q169,689 189,710 M145,0 L104,0 L104,521 L145,521"/> 
            <glyph glyph-name="ð" unicode="&#xF0;" horiz-adv-x="525" d=" M444,652 L341,621 Q428,537 476.5,436.5 Q525,336 525,236 Q525,128 458.5,63.5 Q392,-1 281,-1 Q178,-1 116.5,60 Q55,121 55,223 Q55,321 117,380 Q179,439 282,439 Q349,439 403.5,408.5 Q458,378 482,327 Q439,480 300,608 L162,566 L154,595 L273,632 Q213,683 149,716 L175,743 Q246,704 315,645 L436,682 M287,39 Q376,39 429,88 Q482,137 482,219 Q482,303 429,353 Q376,403 287,403 Q199,403 147,355 Q95,307 95,226 Q95,141 147,90 Q199,39 287,39"/> 
            <glyph glyph-name="ñ" unicode="&#xF1;" horiz-adv-x="561" d=" M276,694 Q229,694 229,637 L197,637 Q197,681 216.5,705 Q236,729 271,729 Q298,729 337,696 Q376,663 395,663 Q442,663 442,720 L474,720 Q474,676 454.5,652 Q435,628 400,628 Q369,628 332,661 Q295,694 276,694 M359,522 Q454,522 507.5,467.5 Q561,413 561,318 L561,0 L519,0 L519,310 Q519,390 474,435 Q429,480 349,480 Q260,478 206.5,425.5 Q153,373 146,282 L146,0 L104,0 L104,521 L146,521 L146,388 Q199,519 359,522"/> 
            <glyph glyph-name="ò" unicode="&#xF2;" horiz-adv-x="562" d=" M343,620 L296,620 L168,723 L209,743 M305,522 Q417,522 489.5,448.5 Q562,375 562,261 Q562,146 489.5,72.5 Q417,-1 305,-1 Q193,-1 120.5,72.5 Q48,146 48,261 Q48,375 121,448.5 Q194,522 305,522 M305,482 Q211,482 150,420 Q89,358 89,260 Q89,162 150,100 Q211,38 305,38 Q400,38 460.5,100 Q521,162 521,260 Q521,358 460.5,420 Q400,482 305,482"/> 
            <glyph glyph-name="ó" unicode="&#xF3;" horiz-adv-x="562" d=" M441,723 L313,620 L266,620 L400,743 M305,522 Q417,522 489.5,448.5 Q562,375 562,261 Q562,146 489.5,72.5 Q417,-1 305,-1 Q193,-1 120.5,72.5 Q48,146 48,261 Q48,375 121,448.5 Q194,522 305,522 M305,482 Q211,482 150,420 Q89,358 89,260 Q89,162 150,100 Q211,38 305,38 Q400,38 460.5,100 Q521,162 521,260 Q521,358 460.5,420 Q400,482 305,482"/> 
            <glyph glyph-name="ô" unicode="&#xF4;" horiz-adv-x="562" d=" M428,621 L386,621 L305,714 L224,621 L182,621 L282,738 L328,738 M305,522 Q417,522 489.5,448.5 Q562,375 562,261 Q562,146 489.5,72.5 Q417,-1 305,-1 Q193,-1 120.5,72.5 Q48,146 48,261 Q48,375 121,448.5 Q194,522 305,522 M305,482 Q211,482 150,420 Q89,358 89,260 Q89,162 150,100 Q211,38 305,38 Q400,38 460.5,100 Q521,162 521,260 Q521,358 460.5,420 Q400,482 305,482"/> 
            <glyph glyph-name="õ" unicode="&#xF5;" horiz-adv-x="562" d=" M241,729 Q268,729 307,696 Q346,663 365,663 Q412,663 412,720 L444,720 Q444,676 424.5,652 Q405,628 370,628 Q339,628 302,661 Q265,694 246,694 Q199,694 199,637 L167,637 Q167,681 186.5,705 Q206,729 241,729 M305,522 Q417,522 489.5,448.5 Q562,375 562,261 Q562,146 489.5,72.5 Q417,-1 305,-1 Q193,-1 120.5,72.5 Q48,146 48,261 Q48,375 121,448.5 Q194,522 305,522 M305,482 Q211,482 150,420 Q89,358 89,260 Q89,162 150,100 Q211,38 305,38 Q400,38 460.5,100 Q521,162 521,260 Q521,358 460.5,420 Q400,482 305,482"/> 
            <glyph glyph-name="ö" unicode="&#xF6;" horiz-adv-x="562" d=" M213,710 Q241,710 251.5,699.5 Q262,689 262,674 Q262,659 251.5,648.5 Q241,638 227,638 Q213,638 203,648.5 Q193,659 193,674 Q193,689 213,710 M369,710 Q397,710 407.5,699.5 Q418,689 418,674 Q418,659 407.5,648.5 Q397,638 383,638 Q369,638 359,648.5 Q349,659 349,674 Q349,689 369,710 M305,522 Q417,522 489.5,448.5 Q562,375 562,261 Q562,146 489.5,72.5 Q417,-1 305,-1 Q193,-1 120.5,72.5 Q48,146 48,261 Q48,375 121,448.5 Q194,522 305,522 M305,482 Q211,482 150,420 Q89,358 89,260 Q89,162 150,100 Q211,38 305,38 Q400,38 460.5,100 Q521,162 521,260 Q521,358 460.5,420 Q400,482 305,482"/> 
            <glyph glyph-name="÷" unicode="&#xF7;" horiz-adv-x="445" d=" M231,536 Q259,536 269,525.5 Q279,515 279,500 Q279,485 269,474.5 Q259,464 245,464 Q231,464 220.5,474.5 Q210,485 210,500 Q210,515 231,536 M445,304 L39,304 L39,338 L445,338 M231,185 Q259,185 269,174.5 Q279,164 279,149 Q279,134 269,123.5 Q259,113 245,113 Q231,113 220.5,123.5 Q210,134 210,149 Q210,164 231,185"/> 
            <glyph glyph-name="ø" unicode="&#xF8;" horiz-adv-x="562" d=" M445,656 L397,507 Q473,481 517.5,415 Q562,349 562,261 Q562,146 489.5,72.5 Q417,-1 305,-1 Q272,-1 238,7 L187,-151 L159,-151 L212,15 Q137,42 92.5,107.5 Q48,173 48,261 Q48,375 121,448.5 Q194,522 305,522 Q338,522 372,514 L417,656 M88,260 Q88,185 124.5,129.5 Q161,74 223,50 L360,479 Q335,485 305,485 Q210,485 149,422 Q88,359 88,260 M305,36 Q400,36 461,98.5 Q522,161 522,260 Q522,335 485,391 Q448,447 386,471 L249,42 Q276,36 305,36"/> 
            <glyph glyph-name="ù" unicode="&#xF9;" horiz-adv-x="536" d=" M309,620 L181,723 L222,743 L356,620 M536,521 L536,0 L495,0 L495,139 Q444,1 286,-1 Q192,-1 139.5,53 Q87,107 87,203 L87,521 L128,521 L128,211 Q128,131 172,86 Q216,41 295,41 Q389,43 442,103 Q495,163 495,266 L495,521"/> 
            <glyph glyph-name="ú" unicode="&#xFA;" horiz-adv-x="536" d=" M325,620 L278,620 L412,743 L453,723 M536,521 L536,0 L495,0 L495,139 Q444,1 286,-1 Q192,-1 139.5,53 Q87,107 87,203 L87,521 L128,521 L128,211 Q128,131 172,86 Q216,41 295,41 Q389,43 442,103 Q495,163 495,266 L495,521"/> 
            <glyph glyph-name="û" unicode="&#xFB;" horiz-adv-x="536" d=" M237,621 L195,621 L295,738 L341,738 L441,621 L399,621 L318,714 M536,521 L536,0 L495,0 L495,139 Q444,1 286,-1 Q192,-1 139.5,53 Q87,107 87,203 L87,521 L128,521 L128,211 Q128,131 172,86 Q216,41 295,41 Q389,43 442,103 Q495,163 495,266 L495,521"/> 
            <glyph glyph-name="ü" unicode="&#xFC;" horiz-adv-x="536" d=" M254,638 Q226,638 216,648.5 Q206,659 206,674 Q206,689 216,699.5 Q226,710 240,710 Q254,710 264.5,699.5 Q275,689 275,674 Q275,659 254,638 M410,638 Q382,638 372,648.5 Q362,659 362,674 Q362,689 372,699.5 Q382,710 396,710 Q410,710 420.5,699.5 Q431,689 431,674 Q431,659 410,638 M536,521 L536,0 L495,0 L495,139 Q444,1 286,-1 Q192,-1 139.5,53 Q87,107 87,203 L87,521 L128,521 L128,211 Q128,131 172,86 Q216,41 295,41 Q389,43 442,103 Q495,163 495,266 L495,521"/> 
            <glyph glyph-name="ý" unicode="&#xFD;" horiz-adv-x="474" d=" M376,723 L248,620 L201,620 L335,743 M474,521 L232,-75 Q183,-195 88,-195 Q30,-195 -11,-165 L7,-129 Q42,-153 86,-153 Q159,-153 198,-59 L222,0 L7,521 L51,521 L243,49 L430,521"/> 
            <glyph glyph-name="þ" unicode="&#xFE;" horiz-adv-x="623" d=" M372,522 Q482,522 552.5,448.5 Q623,375 623,260 Q623,146 552.5,72.5 Q482,-1 372,-1 Q296,-1 238.5,35.5 Q181,72 151,136 L151,-194 L109,-194 L109,742 L151,742 L151,384 Q181,449 238.5,485.5 Q296,522 372,522 M272,38 Q460,38 521,100.5 Q582,163 582,260 Q582,357 521,420 Q460,483 366,483 Q272,483 211.5,420 Q151,357 151,260 Q151,163 272,38"/> 
            <glyph glyph-name="ÿ" unicode="&#xFF;" horiz-adv-x="474" d=" M149,710 Q177,710 187.5,699.5 Q198,689 198,674 Q198,659 187.5,648.5 Q177,638 163,638 Q149,638 139,648.5 Q129,659 129,674 Q129,689 149,710 M305,710 Q333,710 343.5,699.5 Q354,689 354,674 Q354,659 343.5,648.5 Q333,638 319,638 Q305,638 295,648.5 Q285,659 285,674 Q285,689 305,710 M474,521 L232,-75 Q183,-195 88,-195 Q30,-195 -11,-165 L7,-129 Q42,-153 86,-153 Q159,-153 198,-59 L222,0 L7,521 L51,521 L243,49 L430,521"/> 
            <glyph glyph-name="Ā" unicode="&#x100;" horiz-adv-x="690" d=" M461,832 L236,832 L236,868 L461,868 M553,199 L144,199 L54,0 L8,0 L325,699 L370,699 L690,0 L644,0 M534,241 L347,651 L162,241"/> 
            <glyph glyph-name="ā" unicode="&#x101;" horiz-adv-x="480" d=" M391,653 L166,653 L166,689 L391,689 M439,0 L438,103 Q374,-1 230,-1 Q153,-1 105.5,42 Q58,85 58,152 Q58,217 110,254.5 Q162,292 252,292 L437,292 L437,343 Q436,410 397,447 Q358,484 281,484 Q195,484 106,416 L86,448 Q188,522 287,522 Q378,522 427.5,475 Q477,428 478,346 L480,0 M236,37 Q391,37 438,170 L438,255 L256,255 Q98,255 98,153 Q98,101 135.5,69 Q173,37 236,37"/> 
            <glyph glyph-name="Ă" unicode="&#x102;" horiz-adv-x="690" d=" M396,796 Q302,796 269.5,828 Q237,860 236,910 L269,910 Q270,876 293,853 Q316,830 349,830 Q382,830 405,853 Q428,876 429,910 L462,910 Q461,860 396,796 M553,199 L144,199 L54,0 L8,0 L325,699 L370,699 L690,0 L644,0 M534,241 L347,651 L162,241"/> 
            <glyph glyph-name="ă" unicode="&#x103;" horiz-adv-x="480" d=" M325,618 Q231,618 198.5,650 Q166,682 165,732 L198,732 Q200,698 222.5,675 Q245,652 278,652 Q311,652 333.5,675 Q356,698 358,732 L391,732 Q390,682 325,618 M439,0 L438,103 Q374,-1 230,-1 Q153,-1 105.5,42 Q58,85 58,152 Q58,217 110,254.5 Q162,292 252,292 L437,292 L437,343 Q436,410 397,447 Q358,484 281,484 Q195,484 106,416 L86,448 Q188,522 287,522 Q378,522 427.5,475 Q477,428 478,346 L480,0 M236,37 Q391,37 438,170 L438,255 L256,255 Q98,255 98,153 Q98,101 135.5,69 Q173,37 236,37"/> 
            <glyph glyph-name="Ą" unicode="&#x104;" horiz-adv-x="741" d=" M690,0 L682,0 Q624,-77 624,-125 Q624,-145 635.5,-157 Q647,-169 665,-169 Q692,-169 723,-135 L741,-155 Q706,-200 662,-200 Q634,-200 614.5,-181 Q595,-162 595,-129 Q595,-83 652,0 L644,0 L552,199 L144,199 L54,0 L8,0 L326,699 L370,699 M161,241 L536,241 L347,651"/> 
            <glyph glyph-name="ą" unicode="&#x105;" horiz-adv-x="509" d=" M291,522 Q381,522 430.5,475 Q480,428 481,346 L481,0 L473,0 Q393,-76 393,-125 Q393,-146 404,-157.5 Q415,-169 433,-169 Q462,-169 491,-135 L509,-155 Q474,-200 430,-200 Q402,-200 382.5,-180.5 Q363,-161 363,-130 Q363,-75 446,5 L441,5 L441,102 Q376,-1 237,-1 Q155,-1 106.5,42 Q58,85 58,150 Q58,217 110,254.5 Q162,292 253,292 L440,292 L440,343 Q439,410 399.5,447 Q360,484 285,484 Q197,484 106,416 L86,448 Q188,522 291,522 M441,255 L257,255 Q98,255 98,151 Q98,101 135.5,69 Q173,37 243,37 Q309,37 362.5,69.5 Q416,102 441,167"/> 
            <glyph glyph-name="Ć" unicode="&#x106;" horiz-adv-x="654" d=" M493,902 L365,799 L318,799 L452,922 M407,700 Q548,700 653,606 L628,574 Q536,660 408,660 Q275,660 181.5,569.5 Q88,479 88,351 Q88,222 181.5,131 Q275,40 408,40 Q533,40 628,125 L654,96 Q549,-1 407,-1 Q258,-1 152,102 Q46,205 46,350 Q46,495 152,597.5 Q258,700 407,700"/> 
            <glyph glyph-name="ć" unicode="&#x107;" horiz-adv-x="499" d=" M416,723 L288,620 L241,620 L375,743 M303,522 Q416,522 489,449 L465,419 Q397,482 304,482 Q210,482 149.5,420 Q89,358 89,261 Q89,162 149.5,100 Q210,38 304,38 Q412,38 474,111 L499,84 Q427,-1 303,-1 Q192,-1 120,72.5 Q48,146 48,260 Q48,374 120,448 Q192,522 303,522"/> 
            <glyph glyph-name="Ĉ" unicode="&#x108;" horiz-adv-x="654" d=" M480,800 L438,800 L357,893 L276,800 L234,800 L334,917 L380,917 M407,700 Q548,700 653,606 L628,574 Q536,660 408,660 Q275,660 181.5,569.5 Q88,479 88,351 Q88,222 181.5,131 Q275,40 408,40 Q533,40 628,125 L654,96 Q549,-1 407,-1 Q258,-1 152,102 Q46,205 46,350 Q46,495 152,597.5 Q258,700 407,700"/> 
            <glyph glyph-name="ĉ" unicode="&#x109;" horiz-adv-x="499" d=" M404,621 L362,621 L281,714 L200,621 L158,621 L258,738 L304,738 M303,522 Q416,522 489,449 L465,419 Q397,482 304,482 Q210,482 149.5,420 Q89,358 89,261 Q89,162 149.5,100 Q210,38 304,38 Q412,38 474,111 L499,84 Q427,-1 303,-1 Q192,-1 120,72.5 Q48,146 48,260 Q48,374 120,448 Q192,522 303,522"/> 
            <glyph glyph-name="Ċ" unicode="&#x10A;" horiz-adv-x="654" d=" M343,886 Q371,886 381.5,875.5 Q392,865 392,850 Q392,834 381.5,823.5 Q371,813 357,813 Q343,813 332.5,823.5 Q322,834 322,850 Q322,865 343,886 M407,700 Q548,700 653,606 L628,574 Q536,660 408,660 Q275,660 181.5,569.5 Q88,479 88,351 Q88,222 181.5,131 Q275,40 408,40 Q533,40 628,125 L654,96 Q549,-1 407,-1 Q258,-1 152,102 Q46,205 46,350 Q46,495 152,597.5 Q258,700 407,700"/> 
            <glyph glyph-name="ċ" unicode="&#x10B;" horiz-adv-x="499" d=" M267,707 Q295,707 305.5,696.5 Q316,686 316,671 Q316,655 305.5,644.5 Q295,634 281,634 Q267,634 256.5,644.5 Q246,655 246,671 Q246,686 267,707 M303,522 Q416,522 489,449 L465,419 Q397,482 304,482 Q210,482 149.5,420 Q89,358 89,261 Q89,162 149.5,100 Q210,38 304,38 Q412,38 474,111 L499,84 Q427,-1 303,-1 Q192,-1 120,72.5 Q48,146 48,260 Q48,374 120,448 Q192,522 303,522"/> 
            <glyph glyph-name="Č" unicode="&#x10C;" horiz-adv-x="654" d=" M232,917 L275,917 L357,822 L439,917 L482,917 L381,797 L333,797 M407,700 Q548,700 653,606 L628,574 Q536,660 408,660 Q275,660 181.5,569.5 Q88,479 88,351 Q88,222 181.5,131 Q275,40 408,40 Q533,40 628,125 L654,96 Q549,-1 407,-1 Q258,-1 152,102 Q46,205 46,350 Q46,495 152,597.5 Q258,700 407,700"/> 
            <glyph glyph-name="č" unicode="&#x10D;" horiz-adv-x="499" d=" M155,738 L198,738 L280,643 L362,738 L405,738 L304,618 L256,618 M303,522 Q416,522 489,449 L465,419 Q397,482 304,482 Q210,482 149.5,420 Q89,358 89,261 Q89,162 149.5,100 Q210,38 304,38 Q412,38 474,111 L499,84 Q427,-1 303,-1 Q192,-1 120,72.5 Q48,146 48,260 Q48,374 120,448 Q192,522 303,522"/> 
            <glyph glyph-name="Ď" unicode="&#x10E;" horiz-adv-x="757" d=" M256,917 L299,917 L381,822 L463,917 L506,917 L405,797 L357,797 M120,699 L398,699 Q548,699 652.5,597.5 Q757,496 757,349 Q757,204 652,102 Q547,0 397,0 L120,0 M162,658 L162,41 L398,41 Q529,41 621.5,131 Q714,221 714,349 Q714,478 621.5,568 Q529,658 397,658"/> 
            <glyph glyph-name="ď" unicode="&#x10F;" horiz-adv-x="708" d=" M524,742 L566,742 L566,0 L524,0 L524,136 Q494,71 436,34 Q378,-3 302,-3 Q191,-3 119.5,71 Q48,145 48,260 Q48,375 119.5,449.5 Q191,524 301,524 Q378,524 436,487 Q494,450 524,385 M660,696 Q688,696 698,685.5 Q708,675 708,660 Q708,647 696,628 L659,571 L631,571 L659,628 Q640,637 640,660 Q640,676 660,696 M307,36 Q401,36 462.5,99 Q524,162 524,260 Q524,358 462.5,421 Q401,484 307,484 Q213,484 151.5,420.5 Q90,357 89,260 Q90,162 151,99 Q212,36 307,36"/> 
            <glyph glyph-name="Đ" unicode="&#x110;" horiz-adv-x="757" d=" M494,832 L269,832 L269,868 L494,868 M120,699 L398,699 Q548,699 652.5,597.5 Q757,496 757,349 Q757,204 652,102 Q547,0 397,0 L120,0 M162,658 L162,41 L398,41 Q529,41 621.5,131 Q714,221 714,349 Q714,478 621.5,568 Q529,658 397,658"/> 
            <glyph glyph-name="đ" unicode="&#x111;" horiz-adv-x="640" d=" M640,647 L566,647 L566,0 L524,0 L524,136 Q494,71 436,34 Q378,-3 302,-3 Q191,-3 119.5,71 Q48,145 48,260 Q48,375 119.5,449.5 Q191,524 301,524 Q378,524 436,487 Q494,450 524,385 L524,647 L408,647 L408,678 L524,678 L524,742 L566,742 L566,678 L640,678 M307,36 Q401,36 462.5,99 Q524,162 524,260 Q524,358 462.5,421 Q401,484 307,484 Q213,484 151.5,420.5 Q90,357 89,260 Q90,162 151,99 Q212,36 307,36"/> 
            <glyph glyph-name="Ē" unicode="&#x112;" horiz-adv-x="584" d=" M462,832 L237,832 L237,868 L462,868 M571,658 L162,658 L162,379 L526,379 L526,337 L162,337 L162,41 L584,41 L584,0 L120,0 L120,699 L571,699"/> 
            <glyph glyph-name="ē" unicode="&#x113;" horiz-adv-x="546" d=" M408,653 L183,653 L183,689 L408,689 M302,522 Q415,522 480.5,446.5 Q546,371 544,249 L89,249 Q93,154 153,95.5 Q213,37 304,37 Q414,37 480,109 L504,82 Q427,-1 302,-1 Q191,-1 119.5,72.5 Q48,146 48,260 Q48,375 120,448.5 Q192,522 302,522 M90,286 L506,286 Q500,376 445,430 Q390,484 302,484 Q214,484 156,429.5 Q98,375 90,286"/> 
            <glyph glyph-name="Ĕ" unicode="&#x114;" horiz-adv-x="584" d=" M430,910 L463,910 Q462,860 429.5,828 Q397,796 350,796 Q303,796 270.5,828 Q238,860 237,910 L270,910 Q272,876 294.5,853 Q317,830 350,830 Q383,830 405.5,853 Q428,876 430,910 M571,658 L162,658 L162,379 L526,379 L526,337 L162,337 L162,41 L584,41 L584,0 L120,0 L120,699 L571,699"/> 
            <glyph glyph-name="ĕ" unicode="&#x115;" horiz-adv-x="546" d=" M343,618 Q249,618 216.5,650 Q184,682 183,732 L216,732 Q218,698 240.5,675 Q263,652 296,652 Q329,652 351.5,675 Q374,698 376,732 L409,732 Q408,682 343,618 M302,522 Q415,522 480.5,446.5 Q546,371 544,249 L89,249 Q93,154 153,95.5 Q213,37 304,37 Q414,37 480,109 L504,82 Q427,-1 302,-1 Q191,-1 119.5,72.5 Q48,146 48,260 Q48,375 120,448.5 Q192,522 302,522 M90,286 L506,286 Q500,376 445,430 Q390,484 302,484 Q214,484 156,429.5 Q98,375 90,286"/> 
            <glyph glyph-name="Ė" unicode="&#x116;" horiz-adv-x="584" d=" M336,886 Q364,886 374.5,875.5 Q385,865 385,850 Q385,834 374.5,823.5 Q364,813 350,813 Q336,813 325.5,823.5 Q315,834 315,850 Q315,865 336,886 M571,658 L162,658 L162,379 L526,379 L526,337 L162,337 L162,41 L584,41 L584,0 L120,0 L120,699 L571,699"/> 
            <glyph glyph-name="ė" unicode="&#x117;" horiz-adv-x="546" d=" M310,634 Q282,634 271.5,644.5 Q261,655 261,671 Q261,686 271.5,696.5 Q282,707 296,707 Q310,707 320.5,696.5 Q331,686 331,671 Q331,655 310,634 M302,522 Q415,522 480.5,446.5 Q546,371 544,249 L89,249 Q93,154 153,95.5 Q213,37 304,37 Q414,37 480,109 L504,82 Q427,-1 302,-1 Q191,-1 119.5,72.5 Q48,146 48,260 Q48,375 120,448.5 Q192,522 302,522 M90,286 L506,286 Q500,376 445,430 Q390,484 302,484 Q214,484 156,429.5 Q98,375 90,286"/> 
            <glyph glyph-name="Ę" unicode="&#x118;" horiz-adv-x="587" d=" M573,660 L162,660 L162,378 L528,378 L528,339 L162,339 L162,39 L586,39 L586,0 L528,0 Q470,-78 470,-125 Q470,-146 481.5,-157.5 Q493,-169 511,-169 Q539,-169 568,-135 L587,-155 Q552,-200 508,-200 Q479,-200 460,-181 Q441,-162 441,-129 Q441,-81 499,0 L120,0 L120,699 L573,699"/> 
            <glyph glyph-name="ę" unicode="&#x119;" horiz-adv-x="546" d=" M190,521 Q414,523 480,447.5 Q546,372 544,249 L90,249 Q93,155 152.5,96 Q212,37 304,37 Q414,37 480,109 L504,82 Q407,-42 407,-124 Q407,-145 418.5,-157 Q430,-169 448,-169 Q474,-169 504,-135 L522,-155 Q488,-200 445,-200 Q416,-200 396.5,-181 Q377,-162 377,-129 Q377,-56 450,45 Q384,-1 301,-1 Q191,-1 119.5,72.5 Q48,146 48,261 Q48,374 190,521 M390,484 Q214,484 155,429 Q96,374 90,286 L506,286 Q500,375 390,484"/> 
            <glyph glyph-name="Ě" unicode="&#x11A;" horiz-adv-x="584" d=" M224,917 L267,917 L349,822 L431,917 L474,917 L373,797 L325,797 M571,658 L162,658 L162,379 L526,379 L526,337 L162,337 L162,41 L584,41 L584,0 L120,0 L120,699 L571,699"/> 
            <glyph glyph-name="ě" unicode="&#x11B;" horiz-adv-x="546" d=" M271,618 L170,738 L213,738 L295,643 L377,738 L420,738 L319,618 M302,522 Q415,522 480.5,446.5 Q546,371 544,249 L89,249 Q93,154 153,95.5 Q213,37 304,37 Q414,37 480,109 L504,82 Q427,-1 302,-1 Q191,-1 119.5,72.5 Q48,146 48,260 Q48,375 120,448.5 Q192,522 302,522 M90,286 L506,286 Q500,376 445,430 Q390,484 302,484 Q214,484 156,429.5 Q98,375 90,286"/> 
            <glyph glyph-name="Ĝ" unicode="&#x11C;" horiz-adv-x="655" d=" M301,800 L259,800 L359,917 L405,917 L505,800 L463,800 L382,893 M617,343 L655,343 L655,90 Q549,-1 407,-1 Q258,-1 152,102 Q46,205 46,350 Q46,495 152.5,597.5 Q259,700 409,700 Q550,700 655,608 L630,577 Q537,660 409,660 Q276,660 182,569 Q88,478 88,350 Q88,221 182,130 Q276,39 409,39 Q526,39 617,111"/> 
            <glyph glyph-name="ĝ" unicode="&#x11D;" horiz-adv-x="542" d=" M235,621 L193,621 L293,738 L339,738 L439,621 L397,621 L316,714 M542,521 L542,57 Q542,-58 473.5,-126.5 Q405,-195 290,-194 Q170,-191 79,-109 L101,-78 Q179,-152 289,-155 Q386,-156 444,-98 Q502,-40 502,57 L502,155 Q475,92 419,56.5 Q363,21 289,21 Q184,21 116,91.5 Q48,162 48,271 Q48,380 116,451 Q184,522 288,522 Q362,522 418,486 Q474,450 502,387 L502,521 M204,57 Q384,57 443,117.5 Q502,178 502,270 Q502,363 443,423.5 Q384,484 294,484 Q204,484 145.5,423.5 Q87,363 87,270 Q87,177 204,57"/> 
            <glyph glyph-name="Ğ" unicode="&#x11E;" horiz-adv-x="655" d=" M429,796 Q335,796 302.5,828 Q270,860 269,910 L302,910 Q304,876 326.5,853 Q349,830 382,830 Q415,830 437.5,853 Q460,876 462,910 L495,910 Q494,860 429,796 M617,343 L655,343 L655,90 Q549,-1 407,-1 Q258,-1 152,102 Q46,205 46,350 Q46,495 152.5,597.5 Q259,700 409,700 Q550,700 655,608 L630,577 Q537,660 409,660 Q276,660 182,569 Q88,478 88,350 Q88,221 182,130 Q276,39 409,39 Q526,39 617,111"/> 
            <glyph glyph-name="ğ" unicode="&#x11F;" horiz-adv-x="542" d=" M363,618 Q269,618 236.5,650 Q204,682 203,732 L236,732 Q238,698 260.5,675 Q283,652 316,652 Q349,652 371.5,675 Q394,698 396,732 L429,732 Q428,682 363,618 M542,521 L542,57 Q542,-58 473.5,-126.5 Q405,-195 290,-194 Q170,-191 79,-109 L101,-78 Q179,-152 289,-155 Q386,-156 444,-98 Q502,-40 502,57 L502,155 Q475,92 419,56.5 Q363,21 289,21 Q184,21 116,91.5 Q48,162 48,271 Q48,380 116,451 Q184,522 288,522 Q362,522 418,486 Q474,450 502,387 L502,521 M204,57 Q384,57 443,117.5 Q502,178 502,270 Q502,363 443,423.5 Q384,484 294,484 Q204,484 145.5,423.5 Q87,363 87,270 Q87,177 204,57"/> 
            <glyph glyph-name="Ġ" unicode="&#x120;" horiz-adv-x="655" d=" M396,813 Q368,813 357.5,823.5 Q347,834 347,850 Q347,865 357.5,875.5 Q368,886 382,886 Q396,886 406.5,875.5 Q417,865 417,850 Q417,834 396,813 M617,343 L655,343 L655,90 Q549,-1 407,-1 Q258,-1 152,102 Q46,205 46,350 Q46,495 152.5,597.5 Q259,700 409,700 Q550,700 655,608 L630,577 Q537,660 409,660 Q276,660 182,569 Q88,478 88,350 Q88,221 182,130 Q276,39 409,39 Q526,39 617,111"/> 
            <glyph glyph-name="ġ" unicode="&#x121;" horiz-adv-x="542" d=" M330,634 Q302,634 291.5,644.5 Q281,655 281,671 Q281,686 291.5,696.5 Q302,707 316,707 Q330,707 340.5,696.5 Q351,686 351,671 Q351,655 330,634 M542,521 L542,57 Q542,-58 473.5,-126.5 Q405,-195 290,-194 Q170,-191 79,-109 L101,-78 Q179,-152 289,-155 Q386,-156 444,-98 Q502,-40 502,57 L502,155 Q475,92 419,56.5 Q363,21 289,21 Q184,21 116,91.5 Q48,162 48,271 Q48,380 116,451 Q184,522 288,522 Q362,522 418,486 Q474,450 502,387 L502,521 M204,57 Q384,57 443,117.5 Q502,178 502,270 Q502,363 443,423.5 Q384,484 294,484 Q204,484 145.5,423.5 Q87,363 87,270 Q87,177 204,57"/> 
            <glyph glyph-name="Ģ" unicode="&#x122;" horiz-adv-x="655" d=" M617,343 L655,343 L655,90 Q549,-1 407,-1 Q258,-1 152,102 Q46,205 46,350 Q46,495 152.5,597.5 Q259,700 409,700 Q550,700 655,608 L630,577 Q537,660 409,660 Q276,660 182,569 Q88,478 88,350 Q88,221 182,130 Q276,39 409,39 Q526,39 617,111 M372,-61 Q400,-61 410,-71.5 Q420,-82 420,-97 Q420,-110 408,-129 L371,-186 L343,-186 L371,-129 Q352,-120 352,-96 Q352,-81 372,-61"/> 
            <glyph glyph-name="ģ" unicode="&#x123;" horiz-adv-x="542" d=" M325,582 Q297,582 287,592.5 Q277,603 277,618 Q277,631 289,650 L326,707 L354,707 L326,650 Q345,641 345,617 Q345,602 325,582 M542,521 L542,57 Q542,-58 473.5,-126.5 Q405,-195 290,-194 Q170,-191 79,-109 L101,-78 Q179,-152 289,-155 Q386,-156 444,-98 Q502,-40 502,57 L502,155 Q475,92 419,56.5 Q363,21 289,21 Q184,21 116,91.5 Q48,162 48,271 Q48,380 116,451 Q184,522 288,522 Q362,522 418,486 Q474,450 502,387 L502,521 M204,57 Q384,57 443,117.5 Q502,178 502,270 Q502,363 443,423.5 Q384,484 294,484 Q204,484 145.5,423.5 Q87,363 87,270 Q87,177 204,57"/> 
            <glyph glyph-name="Ĥ" unicode="&#x124;" horiz-adv-x="677" d=" M523,800 L481,800 L400,893 L319,800 L277,800 L377,917 L423,917 M677,0 L635,0 L635,330 L162,330 L162,0 L120,0 L120,699 L162,699 L162,371 L635,371 L635,699 L677,699"/> 
            <glyph glyph-name="ĥ" unicode="&#x125;" horiz-adv-x="567" d=" M130,935 L49,842 L7,842 L107,959 L153,959 L253,842 L211,842 M365,522 Q460,522 513.5,467.5 Q567,413 567,318 L567,0 L525,0 L525,310 Q525,390 480,435 Q435,480 355,480 Q259,478 205,418 Q151,358 151,255 L151,0 L109,0 L109,742 L151,742 L151,385 Q204,519 365,522"/> 
            <glyph glyph-name="Ħ" unicode="&#x126;" horiz-adv-x="774" d=" M774,525 L692,525 L692,0 L650,0 L650,330 L176,330 L176,0 L134,0 L134,525 L52,525 L52,561 L134,561 L134,699 L176,699 L176,561 L650,561 L650,699 L692,699 L692,561 L774,561 M650,525 L176,525 L176,371 L650,371"/> 
            <glyph glyph-name="ħ" unicode="&#x127;" horiz-adv-x="567" d=" M365,522 Q460,522 513.5,467.5 Q567,413 567,318 L567,0 L525,0 L525,310 Q525,390 480,435 Q435,480 355,480 Q259,478 205,418 Q151,358 151,255 L151,0 L109,0 L109,609 L21,609 L21,641 L109,641 L109,742 L151,742 L151,641 L322,641 L322,609 L151,609 L151,385 Q204,519 365,522"/> 
            <glyph glyph-name="Ĩ" unicode="&#x128;" horiz-adv-x="279" d=" M76,908 Q103,908 142,875 Q181,842 200,842 Q247,842 247,899 L279,899 Q279,855 259.5,831 Q240,807 205,807 Q174,807 137,840 Q100,873 81,873 Q34,873 34,816 L2,816 Q2,860 21.5,884 Q41,908 76,908 M162,0 L120,0 L120,699 L162,699"/> 
            <glyph glyph-name="ĩ" unicode="&#x129;" horiz-adv-x="263" d=" M60,729 Q87,729 126,696 Q165,663 184,663 Q231,663 231,720 L263,720 Q263,676 243.5,652 Q224,628 189,628 Q158,628 121,661 Q84,694 65,694 Q18,694 18,637 L-14,637 Q-14,681 5.5,705 Q25,729 60,729 M145,0 L104,0 L104,521 L145,521"/> 
            <glyph glyph-name="Ī" unicode="&#x12A;" horiz-adv-x="253" d=" M253,832 L28,832 L28,868 L253,868 M162,0 L120,0 L120,699 L162,699"/> 
            <glyph glyph-name="ī" unicode="&#x12B;" horiz-adv-x="237" d=" M237,653 L12,653 L12,689 L237,689 M145,0 L104,0 L104,521 L145,521"/> 
            <glyph glyph-name="Ĭ" unicode="&#x12C;" horiz-adv-x="254" d=" M221,910 L254,910 Q253,860 220.5,828 Q188,796 141,796 Q94,796 61.5,828 Q29,860 28,910 L61,910 Q62,876 85,853 Q108,830 141,830 Q174,830 197,853 Q220,876 221,910 M162,0 L120,0 L120,699 L162,699"/> 
            <glyph glyph-name="ĭ" unicode="&#x12D;" horiz-adv-x="238" d=" M205,732 L238,732 Q237,682 204.5,650 Q172,618 125,618 Q78,618 45.5,650 Q13,682 12,732 L45,732 Q46,698 69,675 Q92,652 125,652 Q158,652 181,675 Q204,698 205,732 M145,0 L104,0 L104,521 L145,521"/> 
            <glyph glyph-name="Į" unicode="&#x12E;" horiz-adv-x="216" d=" M197,-135 L216,-155 Q181,-200 137,-200 Q108,-200 89,-181 Q70,-162 70,-129 Q70,-78 129,3 L120,3 L120,699 L162,699 L162,0 L156,0 Q99,-77 99,-125 Q99,-146 110.5,-157.5 Q122,-169 140,-169 Q168,-169 197,-135"/> 
            <glyph glyph-name="į" unicode="&#x12F;" horiz-adv-x="200" d=" M119,707 Q134,707 144.5,696.5 Q155,686 155,671 Q155,655 144.5,644.5 Q134,634 119,634 Q105,634 94.5,644.5 Q84,655 84,671 Q84,686 94.5,696.5 Q105,707 119,707 M140,0 L134,0 Q83,-78 83,-125 Q83,-145 94.5,-157 Q106,-169 124,-169 Q153,-169 182,-135 L200,-155 Q165,-200 121,-200 Q93,-200 73.5,-181 Q54,-162 54,-129 Q54,-83 107,0 L99,0 L99,521 L140,521"/> 
            <glyph glyph-name="İ" unicode="&#x130;" horiz-adv-x="176" d=" M127,886 Q155,886 165.5,875.5 Q176,865 176,850 Q176,834 165.5,823.5 Q155,813 141,813 Q127,813 116.5,823.5 Q106,834 106,850 Q106,865 127,886 M162,0 L120,0 L120,699 L162,699"/> 
            <glyph glyph-name="ı" unicode="&#x131;" horiz-adv-x="145" d=" M145,0 L104,0 L104,521 L145,521"/> 
            <glyph glyph-name="Ĳ" unicode="&#x132;" horiz-adv-x="647" d=" M162,0 L120,0 L120,699 L162,699 M647,699 L647,202 Q647,104 599.5,51.5 Q552,-1 465,-1 Q356,-1 284,97 L307,130 Q372,42 465,42 Q533,42 569,83.5 Q605,125 605,203 L605,658 L348,658 L348,699"/> 
            <glyph glyph-name="ĳ" unicode="&#x133;" horiz-adv-x="407" d=" M111,707 Q139,707 149.5,696.5 Q160,686 160,671 Q160,655 149.5,644.5 Q139,634 125,634 Q111,634 100.5,644.5 Q90,655 90,671 Q90,686 111,707 M356,707 Q386,707 396.5,696.5 Q407,686 407,671 Q407,655 396.5,644.5 Q386,634 371,634 Q356,634 345.5,644.5 Q335,655 335,671 Q335,686 356,707 M145,0 L104,0 L104,521 L145,521 M391,521 L391,-27 Q391,-110 357,-152.5 Q323,-195 263,-195 Q205,-193 159,-158 L177,-123 Q214,-154 262,-154 Q304,-155 327,-123.5 Q350,-92 350,-30 L350,521"/> 
            <glyph glyph-name="Ĵ" unicode="&#x134;" horiz-adv-x="365" d=" M335,800 L293,800 L212,893 L131,800 L89,800 L189,917 L235,917 M365,699 L365,202 Q365,104 317.5,51.5 Q270,-1 183,-1 Q74,-1 2,97 L25,130 Q90,42 183,42 Q251,42 287,83.5 Q323,125 323,203 L323,658 L66,658 L66,699"/> 
            <glyph glyph-name="ĵ" unicode="&#x135;" horiz-adv-x="243" d=" M243,621 L201,621 L120,714 L39,621 L-3,621 L97,738 L143,738 M141,521 L141,-29 Q141,-111 109,-153 Q77,-195 15,-194 Q-45,-192 -93,-158 L-77,-125 Q-38,-153 10,-155 Q54,-156 77,-123 Q100,-90 100,-25 L100,521"/> 
            <glyph glyph-name="Ķ" unicode="&#x136;" horiz-adv-x="654" d=" M654,0 L601,0 L316,356 L162,188 L162,0 L120,0 L120,699 L162,699 L162,249 L580,699 L632,699 L347,389 M330,-61 Q358,-61 368,-71.5 Q378,-82 378,-97 Q378,-110 366,-129 L329,-186 L301,-186 L329,-129 Q310,-120 310,-96 Q310,-81 330,-61"/> 
            <glyph glyph-name="ķ" unicode="&#x137;" horiz-adv-x="536" d=" M138,0 L118,-45 Q149,-46 169,-66 Q189,-86 190,-115 Q192,-153 166.5,-177 Q141,-201 101,-201 Q56,-201 27,-180 L39,-152 Q63,-171 98,-171 Q127,-171 144,-154.5 Q161,-138 160,-113 Q159,-92 144.5,-78 Q130,-64 108,-64 L79,-64 L108,2 L109,2 L109,742 L151,742 L151,213 L459,521 L510,521 L313,319 L536,0 L488,0 L283,289 L151,153 L151,0"/> 
            <glyph glyph-name="ĸ" unicode="&#x138;" horiz-adv-x="533" d=" M280,289 L145,150 L145,0 L104,0 L104,521 L145,521 L145,210 L455,521 L506,521 L309,319 L533,0 L484,0"/> 
            <glyph glyph-name="Ĺ" unicode="&#x139;" horiz-adv-x="473" d=" M285,902 L157,799 L110,799 L244,922 M162,41 L473,41 L473,0 L120,0 L120,699 L162,699"/> 
            <glyph glyph-name="ĺ" unicode="&#x13A;" horiz-adv-x="266" d=" M266,944 L138,841 L91,841 L225,964 M151,0 L109,0 L109,742 L151,742"/> 
            <glyph glyph-name="Ļ" unicode="&#x13B;" horiz-adv-x="473" d=" M473,41 L473,0 L120,0 L120,699 L162,699 L162,41 M279,-61 Q307,-61 317,-71.5 Q327,-82 327,-97 Q327,-110 315,-129 L278,-186 L250,-186 L278,-129 Q259,-120 259,-96 Q259,-81 279,-61"/> 
            <glyph glyph-name="ļ" unicode="&#x13C;" horiz-adv-x="169" d=" M151,0 L109,0 L109,742 L151,742 M121,-61 Q149,-61 159,-71.5 Q169,-82 169,-97 Q169,-110 157,-129 L120,-186 L92,-186 L120,-129 Q101,-120 101,-96 Q101,-81 121,-61"/> 
            <glyph glyph-name="Ľ" unicode="&#x13D;" horiz-adv-x="473" d=" M473,41 L473,0 L120,0 L120,699 L162,699 L162,41 M378,543 L406,600 Q387,609 387,632 Q387,648 397,658 Q407,668 421,668 Q435,668 445,657.5 Q455,647 455,632 Q455,619 443,600 L406,543"/> 
            <glyph glyph-name="ľ" unicode="&#x13E;" horiz-adv-x="285" d=" M109,742 L151,742 L151,0 L109,0 M237,696 Q265,696 275,685.5 Q285,675 285,660 Q285,647 273,628 L236,571 L208,571 L236,628 Q217,637 217,660 Q217,676 237,696"/> 
            <glyph glyph-name="Ŀ" unicode="&#x13F;" horiz-adv-x="473" d=" M162,41 L473,41 L473,0 L120,0 L120,699 L162,699 M360,465 Q388,465 398,454.5 Q408,444 408,429 Q408,414 398,404 Q388,394 374,394 Q360,394 350.5,404 Q341,414 341,429 Q341,444 360,465"/> 
            <glyph glyph-name="ŀ" unicode="&#x140;" horiz-adv-x="280" d=" M151,0 L109,0 L109,742 L151,742 M232,342 Q260,342 270,331.5 Q280,321 280,306 Q280,291 270,281 Q260,271 246,271 Q232,271 222,281 Q212,291 212,306 Q212,321 232,342"/> 
            <glyph glyph-name="Ł" unicode="&#x141;" horiz-adv-x="486" d=" M486,41 L486,0 L133,0 L133,421 L38,393 L29,426 L133,456 L133,699 L175,699 L175,469 L353,521 L362,487 L175,433 L175,41"/> 
            <glyph glyph-name="ł" unicode="&#x142;" horiz-adv-x="311" d=" M191,452 L191,0 L149,0 L149,440 L32,406 L24,439 L149,476 L149,742 L191,742 L191,488 L303,521 L311,487"/> 
            <glyph glyph-name="Ń" unicode="&#x143;" horiz-adv-x="677" d=" M535,902 L407,799 L360,799 L494,922 M677,0 L628,0 L162,635 L162,0 L120,0 L120,699 L169,699 L636,64 L636,699 L677,699"/> 
            <glyph glyph-name="ń" unicode="&#x144;" horiz-adv-x="561" d=" M343,620 L296,620 L430,743 L471,723 M359,522 Q454,522 507.5,467.5 Q561,413 561,318 L561,0 L519,0 L519,310 Q519,390 474,435 Q429,480 349,480 Q260,478 206.5,425.5 Q153,373 146,282 L146,0 L104,0 L104,521 L146,521 L146,388 Q199,519 359,522"/> 
            <glyph glyph-name="Ņ" unicode="&#x145;" horiz-adv-x="677" d=" M677,699 L677,0 L628,0 L162,635 L162,0 L120,0 L120,699 L169,699 L636,64 L636,699 M390,-61 Q418,-61 428,-71.5 Q438,-82 438,-97 Q438,-110 426,-129 L389,-186 L361,-186 L389,-129 Q370,-120 370,-96 Q370,-81 390,-61"/> 
            <glyph glyph-name="ņ" unicode="&#x146;" horiz-adv-x="561" d=" M359,522 Q454,522 507.5,467.5 Q561,413 561,318 L561,0 L519,0 L519,310 Q519,390 474,435 Q429,480 349,480 Q260,478 206.5,425.5 Q153,373 146,282 L146,0 L104,0 L104,521 L146,521 L146,388 Q199,519 359,522 M318,-61 Q346,-61 356,-71.5 Q366,-82 366,-97 Q366,-110 354,-129 L317,-186 L289,-186 L317,-129 Q298,-120 298,-96 Q298,-81 318,-61"/> 
            <glyph glyph-name="Ň" unicode="&#x147;" horiz-adv-x="677" d=" M273,917 L316,917 L398,822 L480,917 L523,917 L422,797 L374,797 M677,0 L628,0 L162,635 L162,0 L120,0 L120,699 L169,699 L636,64 L636,699 L677,699"/> 
            <glyph glyph-name="ň" unicode="&#x148;" horiz-adv-x="561" d=" M310,618 L209,738 L252,738 L334,643 L416,738 L459,738 L358,618 M359,522 Q454,522 507.5,467.5 Q561,413 561,318 L561,0 L519,0 L519,310 Q519,390 474,435 Q429,480 349,480 Q260,478 206.5,425.5 Q153,373 146,282 L146,0 L104,0 L104,521 L146,521 L146,388 Q199,519 359,522"/> 
            <glyph glyph-name="Ŋ" unicode="&#x14A;" horiz-adv-x="677" d=" M677,699 L677,0 Q677,-94 629.5,-146 Q582,-198 495,-198 Q387,-198 316,-105 L339,-71 Q402,-154 495,-154 Q561,-154 597,-114.5 Q633,-75 635,0 L628,0 L162,635 L162,0 L120,0 L120,699 L169,699 L636,64 L636,699"/> 
            <glyph glyph-name="ŋ" unicode="&#x14B;" horiz-adv-x="561" d=" M359,522 Q454,522 507.5,467.5 Q561,413 561,318 L561,-27 Q561,-110 526.5,-152.5 Q492,-195 432,-195 Q374,-193 328,-158 L346,-123 Q385,-154 431,-154 Q474,-155 496.5,-124 Q519,-93 519,-31 L519,310 Q519,390 474,435 Q429,480 349,480 Q260,478 206.5,425.5 Q153,373 146,282 L146,0 L104,0 L104,521 L146,521 L146,388 Q199,519 359,522"/> 
            <glyph glyph-name="Ō" unicode="&#x14C;" horiz-adv-x="770" d=" M520,832 L295,832 L295,868 L520,868 M258,700 Q558,700 664,597.5 Q770,495 770,350 Q770,205 664,102 Q558,-1 408,-1 Q258,-1 152,102 Q46,205 46,350 Q46,495 258,700 M540,659 Q276,659 182.5,568.5 Q89,478 89,350 Q89,222 183,131 Q277,40 408,40 Q539,40 633,131 Q727,222 727,350 Q727,478 540,659"/> 
            <glyph glyph-name="ō" unicode="&#x14D;" horiz-adv-x="562" d=" M418,653 L193,653 L193,689 L418,689 M305,522 Q417,522 489.5,448.5 Q562,375 562,261 Q562,146 489.5,72.5 Q417,-1 305,-1 Q193,-1 120.5,72.5 Q48,146 48,261 Q48,375 121,448.5 Q194,522 305,522 M305,482 Q211,482 150,420 Q89,358 89,260 Q89,162 150,100 Q211,38 305,38 Q400,38 460.5,100 Q521,162 521,260 Q521,358 460.5,420 Q400,482 305,482"/> 
            <glyph glyph-name="Ŏ" unicode="&#x14E;" horiz-adv-x="770" d=" M487,910 L520,910 Q519,860 486.5,828 Q454,796 407,796 Q360,796 327.5,828 Q295,860 294,910 L327,910 Q328,876 351,853 Q374,830 407,830 Q440,830 463,853 Q486,876 487,910 M258,700 Q558,700 664,597.5 Q770,495 770,350 Q770,205 664,102 Q558,-1 408,-1 Q258,-1 152,102 Q46,205 46,350 Q46,495 258,700 M540,659 Q276,659 182.5,568.5 Q89,478 89,350 Q89,222 183,131 Q277,40 408,40 Q539,40 633,131 Q727,222 727,350 Q727,478 540,659"/> 
            <glyph glyph-name="ŏ" unicode="&#x14F;" horiz-adv-x="562" d=" M385,732 L418,732 Q417,682 384.5,650 Q352,618 305,618 Q258,618 225.5,650 Q193,682 192,732 L225,732 Q226,698 249,675 Q272,652 305,652 Q338,652 361,675 Q384,698 385,732 M305,522 Q417,522 489.5,448.5 Q562,375 562,261 Q562,146 489.5,72.5 Q417,-1 305,-1 Q193,-1 120.5,72.5 Q48,146 48,261 Q48,375 121,448.5 Q194,522 305,522 M305,482 Q211,482 150,420 Q89,358 89,260 Q89,162 150,100 Q211,38 305,38 Q400,38 460.5,100 Q521,162 521,260 Q521,358 460.5,420 Q400,482 305,482"/> 
            <glyph glyph-name="Ő" unicode="&#x150;" horiz-adv-x="770" d=" M432,903 L338,798 L297,798 L397,923 M561,903 L467,798 L426,798 L526,923 M258,700 Q558,700 664,597.5 Q770,495 770,350 Q770,205 664,102 Q558,-1 408,-1 Q258,-1 152,102 Q46,205 46,350 Q46,495 258,700 M540,659 Q276,659 182.5,568.5 Q89,478 89,350 Q89,222 183,131 Q277,40 408,40 Q539,40 633,131 Q727,222 727,350 Q727,478 540,659"/> 
            <glyph glyph-name="ő" unicode="&#x151;" horiz-adv-x="562" d=" M330,724 L236,619 L195,619 L295,744 M459,724 L365,619 L324,619 L424,744 M305,522 Q417,522 489.5,448.5 Q562,375 562,261 Q562,146 489.5,72.5 Q417,-1 305,-1 Q193,-1 120.5,72.5 Q48,146 48,261 Q48,375 121,448.5 Q194,522 305,522 M305,482 Q211,482 150,420 Q89,358 89,260 Q89,162 150,100 Q211,38 305,38 Q400,38 460.5,100 Q521,162 521,260 Q521,358 460.5,420 Q400,482 305,482"/> 
            <glyph glyph-name="Œ" unicode="&#x152;" horiz-adv-x="1029" d=" M1029,42 L1029,0 L408,0 Q258,0 152,102.5 Q46,205 46,350 Q46,495 152,597 Q258,699 408,699 L1015,699 L1015,658 L606,658 L606,379 L970,379 L970,337 L606,337 L606,42 M564,39 L564,658 L408,658 Q275,658 181.5,568 Q88,478 88,350 Q88,221 181.5,131 Q275,41 408,41"/> 
            <glyph glyph-name="œ" unicode="&#x153;" horiz-adv-x="1024" d=" M776,522 Q887,522 955.5,447.5 Q1024,373 1022,255 L561,255 Q563,158 624,97.5 Q685,37 779,37 Q887,37 956,109 L980,82 Q902,-1 777,-1 Q692,-1 629.5,43.5 Q567,88 541,164 Q515,88 452,43.5 Q389,-1 305,-1 Q193,-1 120.5,72.5 Q48,146 48,261 Q48,375 121,448.5 Q194,522 305,522 Q390,522 452.5,477.5 Q515,433 542,357 Q568,433 630.5,477.5 Q693,522 776,522 M562,285 L981,285 Q976,375 920,430.5 Q864,486 776,486 Q688,486 629,430 Q570,374 562,285 M305,38 Q400,38 460.5,100 Q521,162 521,260 Q521,358 460.5,420 Q400,482 305,482 Q211,482 150,420 Q89,358 89,260 Q89,162 150,100 Q211,38 305,38"/> 
            <glyph glyph-name="Ŕ" unicode="&#x154;" horiz-adv-x="641" d=" M352,799 L305,799 L439,922 L480,902 M591,0 L426,237 Q401,233 367,233 L162,233 L162,0 L120,0 L120,699 L367,699 Q497,699 567.5,639 Q638,579 638,469 Q638,380 594,322.5 Q550,265 466,244 L641,0 M162,274 L368,274 Q478,274 537.5,324 Q597,374 597,468 Q597,560 537.5,609 Q478,658 368,658 L162,658"/> 
            <glyph glyph-name="ŕ" unicode="&#x155;" horiz-adv-x="340" d=" M182,620 L135,620 L269,743 L310,723 M146,521 L146,390 Q197,519 340,522 L340,479 Q255,479 204,426.5 Q153,374 146,282 L146,0 L104,0 L104,521"/> 
            <glyph glyph-name="Ŗ" unicode="&#x156;" horiz-adv-x="641" d=" M591,0 L426,237 Q401,233 367,233 L162,233 L162,0 L120,0 L120,699 L367,699 Q497,699 567.5,639 Q638,579 638,469 Q638,380 594,322.5 Q550,265 466,244 L641,0 M162,274 L368,274 Q478,274 537.5,324 Q597,374 597,468 Q597,560 537.5,609 Q478,658 368,658 L162,658 M352,-61 Q380,-61 390,-71.5 Q400,-82 400,-97 Q400,-110 388,-129 L351,-186 L323,-186 L351,-129 Q332,-120 332,-96 Q332,-81 352,-61"/> 
            <glyph glyph-name="ŗ" unicode="&#x157;" horiz-adv-x="340" d=" M146,521 L146,390 Q197,519 340,522 L340,479 Q255,479 204,426.5 Q153,374 146,282 L146,0 L104,0 L104,521 M115,-61 Q143,-61 153,-71.5 Q163,-82 163,-97 Q163,-110 151,-129 L114,-186 L86,-186 L114,-129 Q95,-120 95,-96 Q95,-81 115,-61"/> 
            <glyph glyph-name="Ř" unicode="&#x158;" horiz-adv-x="641" d=" M320,797 L219,917 L262,917 L344,822 L426,917 L469,917 L368,797 M591,0 L426,237 Q401,233 367,233 L162,233 L162,0 L120,0 L120,699 L367,699 Q497,699 567.5,639 Q638,579 638,469 Q638,380 594,322.5 Q550,265 466,244 L641,0 M162,274 L368,274 Q478,274 537.5,324 Q597,374 597,468 Q597,560 537.5,609 Q478,658 368,658 L162,658"/> 
            <glyph glyph-name="ř" unicode="&#x159;" horiz-adv-x="340" d=" M150,618 L49,738 L92,738 L174,643 L256,738 L299,738 L198,618 M146,521 L146,390 Q197,519 340,522 L340,479 Q255,479 204,426.5 Q153,374 146,282 L146,0 L104,0 L104,521"/> 
            <glyph glyph-name="Ś" unicode="&#x15A;" horiz-adv-x="530" d=" M430,902 L302,799 L255,799 L389,922 M306,701 Q419,701 506,644 L487,606 Q409,657 304,657 Q221,657 171,625 Q121,593 121,538 Q121,495 143.5,465 Q166,435 202.5,418 Q239,401 282.5,388 Q326,375 370,360 Q414,345 450,324.5 Q486,304 508,266.5 Q530,229 530,177 Q530,96 463.5,47.5 Q397,-1 287,-1 Q218,-1 151.5,26.5 Q85,54 38,100 L60,137 Q102,93 164,67.5 Q226,42 288,42 Q378,42 431.5,78.5 Q485,115 485,176 Q486,236 444,272 Q402,308 341.5,325.5 Q281,343 221,362 Q161,381 118.5,423.5 Q76,466 76,535 Q76,610 139,655.5 Q202,701 306,701"/> 
            <glyph glyph-name="ś" unicode="&#x15B;" horiz-adv-x="400" d=" M355,723 L227,620 L180,620 L314,743 M227,522 Q309,522 376,481 L358,447 Q300,484 226,484 Q168,484 132,461.5 Q96,439 96,394 Q96,356 127.5,332.5 Q159,309 203.5,296 Q248,283 292.5,268.5 Q337,254 368.5,222 Q400,190 400,139 Q400,70 348,34.5 Q296,-1 219,-1 Q103,-1 28,71 L47,103 Q118,37 221,37 Q280,37 319,61 Q358,85 360,132 Q361,172 330,197.5 Q299,223 254.5,236 Q210,249 164.5,264 Q119,279 87.5,310.5 Q56,342 56,391 Q56,456 104.5,489 Q153,522 227,522"/> 
            <glyph glyph-name="Ŝ" unicode="&#x15C;" horiz-adv-x="530" d=" M417,800 L375,800 L294,893 L213,800 L171,800 L271,917 L317,917 M306,701 Q419,701 506,644 L487,606 Q409,657 304,657 Q221,657 171,625 Q121,593 121,538 Q121,495 143.5,465 Q166,435 202.5,418 Q239,401 282.5,388 Q326,375 370,360 Q414,345 450,324.5 Q486,304 508,266.5 Q530,229 530,177 Q530,96 463.5,47.5 Q397,-1 287,-1 Q218,-1 151.5,26.5 Q85,54 38,100 L60,137 Q102,93 164,67.5 Q226,42 288,42 Q378,42 431.5,78.5 Q485,115 485,176 Q486,236 444,272 Q402,308 341.5,325.5 Q281,343 221,362 Q161,381 118.5,423.5 Q76,466 76,535 Q76,610 139,655.5 Q202,701 306,701"/> 
            <glyph glyph-name="ŝ" unicode="&#x15D;" horiz-adv-x="400" d=" M342,621 L300,621 L219,714 L138,621 L96,621 L196,738 L242,738 M227,522 Q309,522 376,481 L358,447 Q300,484 226,484 Q168,484 132,461.5 Q96,439 96,394 Q96,356 127.5,332.5 Q159,309 203.5,296 Q248,283 292.5,268.5 Q337,254 368.5,222 Q400,190 400,139 Q400,70 348,34.5 Q296,-1 219,-1 Q103,-1 28,71 L47,103 Q118,37 221,37 Q280,37 319,61 Q358,85 360,132 Q361,172 330,197.5 Q299,223 254.5,236 Q210,249 164.5,264 Q119,279 87.5,310.5 Q56,342 56,391 Q56,456 104.5,489 Q153,522 227,522"/> 
            <glyph glyph-name="Ş" unicode="&#x15E;" horiz-adv-x="530" d=" M121,538 Q121,495 143.5,465 Q166,435 202.5,418 Q239,401 282.5,388 Q326,375 370,360 Q414,345 450,324.5 Q486,304 508,266.5 Q530,229 530,177 Q530,105 476,58 Q422,11 331,1 L309,-49 Q341,-51 361.5,-71 Q382,-91 382,-121 Q383,-158 358,-182 Q333,-206 294,-206 Q249,-206 219,-184 L231,-156 Q255,-175 292,-175 Q319,-175 336,-159 Q353,-143 352,-119 Q351,-99 337,-85.5 Q323,-72 300,-72 Q276,-72 270,-73 L299,-1 L287,-1 Q218,-1 151.5,26.5 Q85,54 38,100 L60,137 Q102,93 164,67.5 Q226,42 288,42 Q378,42 431.5,78.5 Q485,115 485,176 Q486,236 444,272 Q402,308 341.5,325.5 Q281,343 221,362 Q161,381 118.5,423.5 Q76,466 76,535 Q76,610 139,655.5 Q202,701 306,701 Q419,701 506,644 L487,606 Q409,657 304,657 Q221,657 171,625 Q121,593 121,538"/> 
            <glyph glyph-name="ş" unicode="&#x15F;" horiz-adv-x="400" d=" M400,139 Q400,76 356,41 Q312,6 244,0 L223,-49 Q255,-51 275.5,-71 Q296,-91 296,-121 Q297,-158 272,-182 Q247,-206 208,-206 Q163,-206 133,-184 L145,-156 Q169,-175 206,-175 Q233,-175 250,-159 Q267,-143 266,-119 Q265,-99 251,-85.5 Q237,-72 214,-72 Q190,-72 184,-73 L213,-1 Q102,1 28,71 L47,103 Q118,37 221,37 Q280,37 319,61 Q358,85 360,132 Q361,172 330,197.5 Q299,223 254.5,236 Q210,249 164.5,264 Q119,279 87.5,310.5 Q56,342 56,391 Q56,456 104.5,489 Q153,522 227,522 Q309,522 376,481 L358,447 Q300,484 226,484 Q168,484 132,461.5 Q96,439 96,394 Q96,356 127.5,332.5 Q159,309 203.5,296 Q248,283 292.5,268.5 Q337,254 368.5,222 Q400,190 400,139"/> 
            <glyph glyph-name="Š" unicode="&#x160;" horiz-adv-x="530" d=" M168,917 L211,917 L293,822 L375,917 L418,917 L317,797 L269,797 M306,701 Q419,701 506,644 L487,606 Q409,657 304,657 Q221,657 171,625 Q121,593 121,538 Q121,495 143.5,465 Q166,435 202.5,418 Q239,401 282.5,388 Q326,375 370,360 Q414,345 450,324.5 Q486,304 508,266.5 Q530,229 530,177 Q530,96 463.5,47.5 Q397,-1 287,-1 Q218,-1 151.5,26.5 Q85,54 38,100 L60,137 Q102,93 164,67.5 Q226,42 288,42 Q378,42 431.5,78.5 Q485,115 485,176 Q486,236 444,272 Q402,308 341.5,325.5 Q281,343 221,362 Q161,381 118.5,423.5 Q76,466 76,535 Q76,610 139,655.5 Q202,701 306,701"/> 
            <glyph glyph-name="š" unicode="&#x161;" horiz-adv-x="400" d=" M94,738 L137,738 L219,643 L301,738 L344,738 L243,618 L195,618 M227,522 Q309,522 376,481 L358,447 Q300,484 226,484 Q168,484 132,461.5 Q96,439 96,394 Q96,356 127.5,332.5 Q159,309 203.5,296 Q248,283 292.5,268.5 Q337,254 368.5,222 Q400,190 400,139 Q400,70 348,34.5 Q296,-1 219,-1 Q103,-1 28,71 L47,103 Q118,37 221,37 Q280,37 319,61 Q358,85 360,132 Q361,172 330,197.5 Q299,223 254.5,236 Q210,249 164.5,264 Q119,279 87.5,310.5 Q56,342 56,391 Q56,456 104.5,489 Q153,522 227,522"/> 
            <glyph glyph-name="Ţ" unicode="&#x162;" horiz-adv-x="526" d=" M283,0 L262,-49 Q294,-51 314.5,-71 Q335,-91 335,-121 Q336,-158 311,-182 Q286,-206 247,-206 Q202,-206 172,-184 L184,-156 Q208,-175 245,-175 Q272,-175 289,-159 Q306,-143 305,-119 Q304,-99 290,-85.5 Q276,-72 253,-72 Q229,-72 223,-73 L253,0 L248,0 L248,658 L12,658 L12,699 L526,699 L526,658 L290,658 L290,0"/> 
            <glyph glyph-name="ţ" unicode="&#x163;" horiz-adv-x="349" d=" M255,0 L234,-49 Q266,-51 286.5,-71 Q307,-91 307,-121 Q308,-158 283,-182 Q258,-206 219,-206 Q174,-206 144,-184 L156,-156 Q180,-175 217,-175 Q244,-175 261,-159 Q278,-143 277,-119 Q276,-99 262,-85.5 Q248,-72 225,-72 Q201,-72 195,-73 L224,0 Q122,8 122,144 L122,472 L46,472 L46,508 L122,508 L122,637 L162,637 L162,508 L339,508 L339,472 L162,472 L162,149 Q162,94 183,66.5 Q204,39 245,40 Q290,40 333,70 L349,36 Q303,4 255,0"/> 
            <glyph glyph-name="Ť" unicode="&#x164;" horiz-adv-x="526" d=" M145,917 L188,917 L270,822 L352,917 L395,917 L294,797 L246,797 M526,658 L290,658 L290,0 L248,0 L248,658 L12,658 L12,699 L526,699"/> 
            <glyph glyph-name="ť" unicode="&#x165;" horiz-adv-x="349" d=" M241,597 L269,654 Q250,663 250,686 Q250,702 260,712 Q270,722 284,722 Q298,722 308,711.5 Q318,701 318,686 Q318,673 306,654 L269,597 M333,70 L349,36 Q296,-1 240,-1 Q184,-2 153,35 Q122,72 122,144 L122,472 L46,472 L46,508 L122,508 L122,637 L162,637 L162,508 L339,508 L339,472 L162,472 L162,149 Q162,94 183,66.5 Q204,39 245,40 Q290,40 333,70"/> 
            <glyph glyph-name="Ŧ" unicode="&#x166;" horiz-adv-x="526" d=" M383,832 L158,832 L158,868 L383,868 M526,658 L290,658 L290,0 L248,0 L248,658 L12,658 L12,699 L526,699"/> 
            <glyph glyph-name="ŧ" unicode="&#x167;" horiz-adv-x="349" d=" M333,70 L349,36 Q296,-1 240,-1 Q184,-2 153,35 Q122,72 122,144 L122,284 L46,284 L46,321 L122,321 L122,472 L46,472 L46,508 L122,508 L122,637 L162,637 L162,508 L339,508 L339,472 L162,472 L162,321 L339,321 L339,284 L162,284 L162,149 Q162,94 183,66.5 Q204,39 245,40 Q290,40 333,70"/> 
            <glyph glyph-name="Ũ" unicode="&#x168;" horiz-adv-x="669" d=" M322,908 Q349,908 388,875 Q427,842 446,842 Q493,842 493,899 L525,899 Q525,855 505.5,831 Q486,807 451,807 Q420,807 383,840 Q346,873 327,873 Q280,873 280,816 L248,816 Q248,860 267.5,884 Q287,908 322,908 M669,699 L669,286 Q669,150 594.5,74.5 Q520,-1 386,-1 Q252,-1 177.5,74.5 Q103,150 103,286 L103,699 L145,699 L145,286 Q145,169 208.5,104.5 Q272,40 386,40 Q500,40 563.5,104.5 Q627,169 627,286 L627,699"/> 
            </font>
</defs>
</svg>
